/* XPM */
static char *background1[] = {
/* columns rows colors chars-per-pixel */
"32 32 182 2 ",
"   c #020404",
".  c #040708",
"X  c #050A0C",
"o  c #0C0B09",
"O  c #110D08",
"+  c #050E13",
"@  c #080F11",
"#  c #070E1C",
"$  c #061116",
"%  c #0A1216",
"&  c #07131A",
"*  c #09141B",
"=  c #0B181F",
"-  c #121B1E",
";  c #070B20",
":  c #080D22",
">  c #071323",
",  c #091224",
"<  c #071821",
"1  c #0A1A24",
"2  c #091529",
"3  c #0B1C2B",
"4  c #181F24",
"5  c #121D27",
"6  c #0D2026",
"7  c #0D212B",
"8  c #12252C",
"9  c #182529",
"0  c #15292F",
"q  c #18292E",
"w  c #0E2432",
"e  c #0F2936",
"r  c #0E2A3B",
"t  c #0F2639",
"y  c #112732",
"u  c #142A34",
"i  c #192D33",
"p  c #132C3D",
"a  c #17313C",
"s  c #1B333C",
"d  c #20363D",
"f  c #2E393A",
"g  c #402512",
"h  c #492B15",
"j  c #49311E",
"k  c #563116",
"l  c #6C3A1A",
"z  c #6C4122",
"x  c #0E2E42",
"c  c #122E41",
"v  c #0D3044",
"b  c #153243",
"n  c #193544",
"m  c #1D3944",
"M  c #123549",
"N  c #193748",
"B  c #153A4C",
"V  c #1A3C4C",
"C  c #163D51",
"Z  c #183E52",
"A  c #223C44",
"S  c #253F48",
"D  c #1B404E",
"F  c #1B4354",
"G  c #16445A",
"H  c #1B465A",
"J  c #1B495D",
"K  c #194556",
"L  c #24424D",
"P  c #244652",
"I  c #284751",
"U  c #244857",
"Y  c #204759",
"T  c #234D5D",
"R  c #2A4E5B",
"E  c #294B57",
"W  c #25505F",
"Q  c #2C515D",
"!  c #1B4D63",
"~  c #1D5369",
"^  c #244F61",
"/  c #265263",
"(  c #2A5565",
")  c #295768",
"_  c #225869",
"`  c #2D5A6A",
"'  c #2F5965",
"]  c #305662",
"[  c #325864",
"{  c #315D6B",
"}  c #34616F",
"|  c #3A636D",
" . c #20607B",
".. c #296574",
"X. c #356372",
"o. c #3A6672",
"O. c #346976",
"+. c #3A6976",
"@. c #336A7A",
"#. c #3D6D79",
"$. c #27707E",
"%. c #3E717E",
"&. c #40565B",
"*. c #465D62",
"=. c #426168",
"-. c #526465",
";. c #406F7B",
":. c #43717E",
">. c #A8551F",
",. c #226A86",
"<. c #236E8A",
"1. c #276B82",
"2. c #2C7482",
"3. c #2D7788",
"4. c #24728D",
"5. c #377A88",
"6. c #3B7182",
"7. c #257692",
"8. c #257995",
"9. c #2B7B92",
"0. c #277E99",
"q. c #297E9A",
"w. c #317D91",
"e. c #457582",
"r. c #477884",
"t. c #497B86",
"y. c #4B7E89",
"u. c #4A7784",
"i. c #3E818F",
"p. c #27819C",
"a. c #28829D",
"s. c #2A8196",
"d. c #338798",
"f. c #3B899A",
"g. c #378295",
"h. c #33909D",
"j. c #2A86A1",
"k. c #2C8BA4",
"l. c #328CA4",
"z. c #2D94AA",
"x. c #2E98AE",
"c. c #3E90A7",
"v. c #3099AF",
"b. c #3A9BAE",
"n. c #3392A8",
"m. c #319FB2",
"M. c #32A3B5",
"N. c #3AA5B5",
"B. c #35ABBA",
"V. c #4D818C",
"C. c #52838E",
"Z. c #488490",
"A. c #558690",
"S. c #5C8D96",
"D. c #5D8F98",
"F. c #558891",
"G. c #48929E",
"H. c #5E919B",
"J. c #64939C",
"K. c #4696A3",
"L. c #499CA6",
"P. c #489EA8",
"I. c #4799A5",
"U. c #559AA4",
"Y. c #419EB1",
"T. c #649BA4",
"R. c #4AA1AA",
"E. c #48AAB9",
"W. c #5FA7B0",
"Q. c #48B7BF",
"!. c #52B1BD",
"~. c #6CA0A9",
"^. c #61A3AC",
"/. c #6CB3BF",
"(. c #38B5C1",
"). c #43B8C2",
"_. c #56B6C2",
"`. c #5AB4C0",
"'. c #64BFCA",
"]. c #5EC9D2",
"[. c #8BAFB4",
"{. c #91B4B9",
/* pixels */
". . . % p c c B 5.f.a.7.7.<.a.x.p.8.<.<.,.a.w.i.C b x e $ X . . ",
"X . . . 1 b M Z ~ ,.8.a.p.a.j.j.p.0.0.a.8.0.,.~ F B r = + X . X ",
"+ + % f = b / ` @.n.x.x.j.j.b.Y.q.j.v.x.v.v.l.X.` / p $ + + + X ",
"+ + 5 *.1 < V +.e.f.!._.x.x.j.j.j.M.M.B.]._.g.%.X.V $ + + + X . ",
"+ + + u A $ 1 U e.y.I.Q.x.m.m.x.x.M.M.x.).R.u.u.T 3 $ i 7 + % X ",
"+ + + 0 =.8 X = ' V.Z.N.B.M.(.!.`.(.B.M.b.V.y.} 7 + 8 { a $ &.m ",
". X + $ $ s L = y +.V.K.K.K.I.T.~.P.P.L.G.y.+.y $ L s = $ + - % ",
"= X X + $ A { 7 $ u | +.| | | | | | | | +.+.p @ 1 [ m $ $ X X 1 ",
"F b 1 + + $ 1 E m + 7 7 1 1 < = < < 1 1 u 7 $ S I 1 $ $ = 3 b F ",
"^ / T b 3 $ $ A 8 7 H 2.$...` m n [ [ Q Q V e u 7 $ $ 7 V J ^ T ",
"/ ) ) / T b 1 1 7 P O.Q.h.2.@.` ' +.X.{ X.) Z r 1 7 V T ^ ^ ^ ^ ",
"Y / ) ) ` ` T V B X.#./ B b p p c p c c V ) ) C F T ) / / / T J ",
"3 b F T ` X.#.#.+.X.^ b 2 2 2 < < < 2 3 b T X.+.` ) / / F V b 3 ",
"J 3 < 3 y b P y.V.y.;.b 2 < < < < < < 2 b #.y.V.e.V p p 3 < 3 J ",
"9.s r J J x b u.C.A.e.n < < < < < < < < n e.A.V.u.n c J J y t s.",
"2.A G q.7.G n u.J.{.u.n 2 < < < < < < < b u.[.J.u.b J 9.q.J t f.",
"p u 6.j.l.~ b u.F.D.u.N 2 < < < : 2 2 2 n e.S.F.u.c J n.k.@.p V ",
"# 5 e.j.E.@.b u.V.V.e.b < < 2 < 2 : < 2 n e.V.V.u.p ) /.N...= = ",
": ; J j.j.! p u.V.u.#.b < < < < < : : 2 n ;.y.V.u.p ! c.l.J = 4 ",
": : p J F b V D.C.+.T p < < < < : : : 2 b ) +.C.H.V p F J p < = ",
"# + + < p E :.S.e.+.` c < < < < < < < 3 b { #.r.D.e.Q s < # + + ",
"1 y L { C.~.~.u.V T F B r p p p p p t b J F / F y.~.T.J.{ m e 1 ",
"F / X.#.V.V.+.E p B F ` ) / { ` ` { ) 2.d.C B b L { #.C.:./ T F ",
"/ / / } ` D 7 = < 7 V T ) E Q n m Q ' 2.2.D 7 = $ 1 m / ` ) / / ",
"/ / T F e < $ A E % + = = = = % % = = = % + 1 Q 8 + $ e V T / / ",
"J B r 1 $ = i u 8 = P E Q Q Q Q Q Q Q E E P 1 1 s m $ $ < e F T ",
"e 1 $ + + 6 Q u . n / / ) ) ` ` ` ` ` ) ) / a X s E 1 X + $ 1 e ",
"+ $ X . i y = . 3 F J J J ! ! J J J J F F F C 3 X 1 P 8 . + % $ ",
"+ X . X i = X 1 B F J ! ! ! ~ ! ! ! J J J J C M 1 X d i o h z % ",
". . . X . . = b B C / g.7.7.4.<.,.,. .~ 3._ C M b = @ q j >.k X ",
". . . . . X p b M B U.'.x.x.j.p.a.p.0.0.`.^.C M b 7 9 -.l g O . ",
". . . . . + r x b B U.E.x.x.j.p.j.j.p.p.b.W.C M x r = % o . . . "
};
