/* XPM */
static char *A_pixel_art_pixel_art_digital_il1744715564[] = {
/* columns rows colors chars-per-pixel */
"64 64 138 2 ",
"   c #03011E",
".  c #030223",
"X  c #0D0327",
"o  c #04042B",
"O  c #0D042C",
"+  c #10072F",
"@  c #050434",
"#  c #090635",
"$  c #020936",
"%  c #06043C",
"&  c #0A053C",
"*  c #03093C",
"=  c #0A083B",
"-  c #100730",
";  c #12063F",
":  c #070541",
">  c #0A0543",
",  c #040B44",
"<  c #0A0945",
"1  c #0C054C",
"2  c #040E4B",
"3  c #0C0A4B",
"4  c #120644",
"5  c #110946",
"6  c #140749",
"7  c #1B074D",
"8  c #12094D",
"9  c #1B094A",
"0  c #091245",
"q  c #03104F",
"w  c #0E0652",
"e  c #060E51",
"r  c #0D0C53",
"t  c #0D0B5B",
"y  c #110655",
"u  c #1D0751",
"i  c #140A53",
"p  c #1A0954",
"a  c #14075C",
"s  c #1B075C",
"d  c #130A5B",
"f  c #1B0B5B",
"g  c #041253",
"h  c #0A1254",
"j  c #0B1955",
"k  c #06165C",
"l  c #0F125F",
"z  c #06185E",
"x  c #0C1C5A",
"c  c #10105E",
"v  c #2F0747",
"b  c #2C074D",
"n  c #210A4B",
"m  c #35084E",
"M  c #220753",
"N  c #280757",
"B  c #200956",
"V  c #23075A",
"C  c #2B075D",
"Z  c #230A5A",
"A  c #2F085D",
"S  c #340852",
"D  c #32075E",
"F  c #072F5B",
"G  c #0C0D6C",
"H  c #170760",
"J  c #1C0763",
"K  c #170860",
"L  c #1A0963",
"P  c #1F0968",
"I  c #061960",
"U  c #141162",
"Y  c #191065",
"T  c #1E1068",
"R  c #0D0E74",
"E  c #0C0F7C",
"W  c #0C117E",
"Q  c #230764",
"!  c #220B64",
"~  c #2B0965",
"^  c #240769",
"/  c #2A076D",
"(  c #220A6A",
")  c #2B0A6C",
"_  c #350763",
"`  c #310866",
"'  c #30066F",
"]  c #3E076D",
"[  c #320B6C",
"{  c #390A6E",
"}  c #23106C",
"|  c #2E0771",
" . c #2D0971",
".. c #330672",
"X. c #3B0775",
"o. c #350973",
"O. c #3B0A74",
"+. c #3D0778",
"@. c #3A0978",
"#. c #2B1073",
"$. c #0C2165",
"%. c #063868",
"&. c #0E2773",
"*. c #0E2875",
"=. c #0E2978",
"-. c #430A5C",
";. c #4B0B63",
":. c #44076F",
">. c #550B6D",
",. c #420776",
"<. c #4D0776",
"1. c #410975",
"2. c #440779",
"3. c #4B077C",
"4. c #44097A",
"5. c #4B087B",
"6. c #51077D",
"7. c #51097E",
"8. c #650D7D",
"9. c #06416E",
"0. c #054574",
"q. c #054B7D",
"w. c #0E0F82",
"e. c #0B1481",
"r. c #091884",
"t. c #4F0980",
"y. c #550781",
"u. c #5A0783",
"i. c #530981",
"p. c #5A0886",
"a. c #5E0788",
"s. c #650586",
"d. c #6B0D82",
"f. c #054F81",
"g. c #045C91",
"h. c #03679E",
"j. c #026CA3",
"k. c #0273AB",
/* pixels */
"@ @ @ @ @ @ @ @ @ @ @ @ @ @ @ @ @ @ @ @ @ @ @ @ @ @ @ @ @ @ @ @ @ @ @ @ @ @ @ @ @ @ @ @ @ @ @ @ @ @ @ @ @ @ @ @ @ @ @ @ @ @ @ @ ",
"@ @ @ % @ @ @ @ @ % @ @ @ @ @ % % @ @ @ @ @ % @ @ @ @ @ @ @ % @ @ @ @ @ % @ @ @ @ @ @ @ @ % @ @ @ @ @ % @ @ @ @ @ @ @ @ @ @ @ @ ",
"@ % % % % % % % % % % % % % % % % % % % % % % % % % % % % % % % % % % % % % % % % % % % % % % % @ % % @ @ % % % % @ % @ % @ @ @ ",
"% % % % % % % : % % % % % % % % % % % : % % % % % % % % % % % : % % % % % % % % % % % % % % % % % % % % % % % : % % % % % % % % ",
"> % > : > % : : : : : : % > % > : : : : : : > : % > : : > : : : : : : : % % % > : : : : : % > > > % : : : % : : > % : > % % % % ",
"> > > > > > > : > > > > > > > > > : : > > : > > > > : > > > > > > > > : > > : > : : > : > > : > > > > : : > : > : : > > > > > > ",
"> > 1 > > > 1 > 1 > > > > > > > > 1 1 > > > > 1 > > 1 1 > > 1 > > 1 1 > 1 > > 1 : 1 > 1 > 1 > > > > > > > > > > > > > > 1 > > > ",
"1 1 1 1 1 1 1 1 1 1 1 1 w 1 w 1 1 1 1 1 1 w 1 1 1 1 1 1 1 1 1 1 1 1 1 1 1 1 > > : : 1 1 1 1 1 1 1 1 1 w w 1 1 1 1 1 1 > 1 > 1 > ",
"1 w 1 w 1 w 1 w 1 w w w w 1 w 1 1 1 w w 1 w w w w 1 w w 1 w w 1 1 1 w 1 1 > % % % : > w w 1 w 1 w w 1 w w 1 1 1 1 1 1 1 1 1 1 1 ",
"w w w w w w w w w w w w w w w w w w w w w w w w w w w w w w w w w w w 1 : : * % % % , w w w w w w w w w w w w 1 w w w w w 1 w w ",
"y y y y y y y y y y y y y w y y y y t w y w y w y y y y y w w w w y y 1 % : > 2 2 % : w y w y y w w w w w w w y w w w w w w w w ",
"a a y t a a t d t t a a a a H t a t a a a a a a t a t d a a d a t t t w : > 2 2 : % : t y t a t t t w a t a y t t y y t t w t w ",
"y a a a a a H a a a a H a a a H a H a a a a a a a a a a a a d a a a a y % % % % % % : a a a a a a a a a a a a a a a a a y y a y ",
"H H H H K H K K H H H H H H H H H H H H L H K H H H H H H H J s a H H y % > % > % % % a H a H H a a H a K a a a a a a a H a H a ",
"H J H J L H L J H J J J H J H J J J H J L J J J P J H P J H Q Z J H J y * 2 2 2 , @ % H L L H L H J H H K H L K K K H H H H H H ",
"J J J J J J J J J J J J P J P J P J J P J J J J J J J J J ( p i J J J a % > : % % % % J J J J J J J J J a s J J J H J J H H H H ",
"P P ( P ( P ^ P ( P P P P P ( ( P P ( P ( ( P ^ ( P ( ( s y 0 3 ( P Q a % % & & % % > Q ( P P ( ( ( P ^ y L ( Q P P P J P J P J ",
"( ^ ^ ^ ( ^ ^ ^ ( ( ^ / ^ ^ ^ ^ ^ / ^ ( ( ^ ^ ^ ^ ( ^ ^ 3 $ * * p Q ^ s > , > & % % & ^ ^ ( ( ( ( ^ s a 3 s ^ ( ( ( P P ( P P P ",
"^ / ^ ^ / ^ / / / / ^ Q / ^ / / / ^ / | / / ^ / / / / s , = ; = $ 1 / s , : % % = % & ^ / / ^ / / w * % $ , ^ ^ ^ ^ ^ ^ ^ ^ ( ( ",
"|  . .| | / | | /  .) V ..| | | / | | Q / | | | | | ..s 5 n 9 = # 4 ..J * % % % 2 % > ^ | / | | p $ * * , = V | | | | /  .^ | ^ ",
"' ' ' ' | ' ' ' ' o.~ ~ o.' ' ' ....o.3 V o.....' ' ..B = 2 2 = @ 4 o.Q % , e < , % & ......) ..i * 4 = * % 6 ../ ..' ) |  ./ | ",
"..@.....@.o.o.@.Q 3 3 f @.X...@.o.@.~ 3 < 6 B X.o.o.@.V = < # < # 9 X.Q * > : , < % & ! Q ) o.@.p * 3 , , @ p @.o.o.o.o. ..... .",
"[ X.@...@.X.X.` = $ % @ ~ ,.@.X.X.` = = = $ % ` +.@.@.V % , & & @ 9 +.~ * % , 2 , % = 2 q Q X.@.f $ 2 > , # u +.o.@.@.o.@.+. .i ",
"Q 2.,.X.,.X.2.u = : : % 7 2.,.,.2.4 @ = = & @ C 4.,.4.C @ < 2 & # 7 2.~ * > & < & % & g 2 ~ 2.4.V % , : > @ 7 4.X.+.@...p f i 2 ",
"~ 4.4.2.2.,.3.u q g k % u 5.5.2.5.4 ; S b b @ A 3.,.3.~ = & < : # n 3.` % : = & & & : g 2 ' 3.3.p * 2 % & % u 3.4.4.+.f 2 2 1 3 ",
"~ 5.2.2.5.4.3.M , , 2 % p O.4.5.5.4 $ 3 2 2 # A 3.<.! i & & > , # M 6.` % % , , & % = 2 , M 1.5.i : 3 & & % u 3.2.3.{ 3 1 3 3 < ",
"` p.1.U [ i.i.M , , 2 & < U 4.7.u.6 ; 9 , < # D y.5.Y 3 < 2 e & ; < +.:.% > 3 & % = @ @ = o Z p.p : < > : & M u.7.7.,.3 3 1 8 8 ",
"[ 4.! U ) y.u.Z * 3 e & 8 U <.7.~ 4 = 3 0 3 # _ p.7.T i & & < & & % [ :.= > & & & = , , , $ N a.f : < 2 3 & 8 f O.u.3.3 3 p 1 8 ",
"{ O.c Y ! } #.9 % 3 > & 8 U 7.<.g < & : & 3 & 8 1.u.} 8 < h < 4 5 , o.<.* < < > & 2 2 q 0 o A p.i > 2 e > > < q O.5.) 2 1 p u 8 ",
"{ O.L f f Y ! 8 & 3 > ; 8 T 5.[ f 4 < < q 3 & , { s.} c < 3 < 4 4 : N A : < > > & , , 2 , $ _ i.t 3 3 r > 4 6 h { ! c i 3 8 u 8 ",
"1.4.h = = 8 ) 8 , > 3 < 8 } ] f ! 3 : 3 < : 5 < { u.} i < 3 4 < 4 = $ $ = > > 4 > * , , 2 @ D i.U 8 2 t 3 > 3 h { } L i 3 y 8 8 ",
"~ { 0 , $ < #.i > 3 3 3 p } { ! } 8 < 4 < 5 ; 3 h i } f 3 r 3 8 > , , , * = 1 6 > , 2 2 , $ 8 ! L 8 e 3 < < 6 q O.[ ! i 1 u u 8 ",
"i } h q = = } f 3 8 8 < 9 #.O.} #.6 < 6 e 3 4 0 g c #.f 3 r h 8 < , , q * : 8 8 < * , * , % 6 } ! 8 8 3 < 6 3 2 Z f ! f 3 u 8 i ",
"c ) 3 , , * f p e h 8 8 i 8 5 8 ) p 4 3 i 6 6 8 h i ! d 8 i i 8 < = * * * : i 8 3 , 2 e , $ 6 L c i 8 3 i 3 , % $ = ! p 3 p p u ",
"f #.r , , , h i 6 i r 8 < $ * * f 9 6 6 r i 6 r 2 $ = = 8 i 9 i 6 * , q = < p p 3 $ , , , * < e e 3 t r i 3 * , , * p d 8 p p 8 ",
"f #.3 , , , c i r i f < $ , , * $ < i r i 8 9 r 2 = , , : p p p 8 * , q * < p 2 , , , q , $ 3 d r w 3 i r 3 , g g $ r p i p f p ",
"f Y 3 , g , d i d i f < , 2 q * , < f i i i 8 i 2 * , * = d f f h * * , * 3 p 2 * q , , q $ 3 c r 3 3 i d 3 , q q * 3 f p f u p ",
"Y i 3 , = : c f f f f < , , , , , < f p f d p p < q q , < f f ! i * , , $ 3 f , , , , q , $ 8 f 2 , * i f 8 , q q * 3 f i d f p ",
"f c 3 2 g 2 i f f f Z 3 , q q * $ 8 i 3 f f f f 2 , , q , f h 3 < , , q , 8 Q 2 , * , , , * 8 f , , * 3 f i , q , * 3 , , 3 f f ",
"2 , , , g 0 i f f 2 3 2 , * q , * 3 h , f Z 8 2 , q , , 2 f * q , 0 , , , 6 ! , , , q q q , < 3 2 q 2 , q 2 , 0 * , 3 2 , i ! f ",
", , 2 2 , q r f f , , 2 q * , q , r 2 2 ! ( i , , 2 q , 2 f , , , , , q 2 2 3 , , , , q , , , , , g q , , , 2 2 , , 3 2 , r f h ",
"q q , , , , , i L , , , , q q , , q q , f Z h , , 2 , q , 3 q , q , q q q , , 2 2 q , , 2 2 2 , , , 2 , , 2 2 2 , 2 2 , , i h , ",
"2 0 2 2 2 q q h f 2 g 2 , g q q , q q q 2 q q 2 q q q q g g q g q q q q 2 2 2 2 q , q q 2 2 2 2 q q 2 , q q 2 g q , q q 2 h q 2 ",
"q q q q q q q q 2 q 2 q q q q g q g g g q q q q q q q q q q q q q q g q q g g g q q q q q q g 2 q g q q q q g g q q g q q q q q ",
"g g g g q g g g g g g e e g g g q h g g q g g g g g g g g g g g g g g g g k k g g g g g g g g g g g g g g g g g g g g g g g g g ",
"k k k k k k k k k k k k k k k k k k k k k k k k k k k k k k k k k k I k k k k k z z k k k k k k k k k z k k k k k k k k k k k k ",
"k k k k k z h k k k k k k k k k k k k k k k k z k z k k k k k k k k z I k k z k k k k k z k k k k k z k z z k k k k k z k k k k ",
"= < 3 3 3 8 3 2 3 3 3 < > 3 3 3 3 < 3 3 3 1 3 = > 3 3 3 3 6 3 3 3 3 3 = > 3 3 3 3 3 3 3 3 3 3 < 3 3 & < 3 3 3 3 3 3 3 < 3 6 1 3 ",
"y W E E W W W r.r.W W W G r.W W W E E W W W w.y t w.W e.W r.W r.W W W G c W W W W W W W W W W W e.e.G R W E W e.W W E E W w.W W ",
"0.k.j.j.h.j.j.j.j.j.k.q.q.k.j.j.j.j.j.j.j.j.k.9.0.k.j.j.j.j.j.j.j.j.k.j.F j.j.j.j.j.h.j.j.j.j.j.j.k.g.%.k.j.j.j.j.j.j.j.j.j.j.j.",
"j &.&.&.&.&.*.*.*.*.*.x x =.*.*.&.&.&.&.&.&.*.j j *.&.&.*.&.&.&.&.&.&.*.= *.=.*.*.*.*.&.*.*.*.*.&.=.$.0 &.&.&.&.&.*.*.*.*.&.*.&.",
"-.d.8.8.8.8.8.8.8.8.d.-.;.8.8.8.8.8.8.8.8.8.d.S -.d.8.8.8.8.8.8.8.8.8.8.v 8.8.8.8.8.8.8.8.8.8.8.8.d.>.m d.8.8.8.8.8.8.8.8.8.8.8.",
"X + + + + + + + + + + + + + + + + + + + + + + O + + + + + + - - + + + + X - - - + + + + + + + + O - + X - + + + + + - O + + + + ",
". . . . . . . . . . . . X   . . . . o o o o o . o o o o o o . .     . . . .   . . . . . . . . . . . . o o o o o o o o o o o . . ",
"@ $ o $ o $ o $ o o o $ o o @ o o * : = # = = # # = # = # : = o o o # o $ o o $ o $ @ @ $ . $ $ @ o 2 # = = = = = # = = # # : = ",
". . . . o . o . . o o . o o .   $ = X o o o @ o o o o o o X = o . o . o . o o .   o . . o . . . . $ # o o o o o o o o o o o O * ",
"$ $ o $ $ . o $ O $ $ o o $ o   @ # . @ @ @ o o o o @ @ $ o # $ . o o o $ $ o o @ o . o $ o o $ . @ o o @ @ @ o @ @ o @ @ o . @ ",
". . . . . . . o . o o o o . o   o o . . . o . o o . . o X . o o   o o o . o o o . o . o . . . o . @ o . o o . . o . o o . o . @ ",
". . o . o   o . . o . . . . o   . o . o . . o . o o . . o . o .   . o . o . . o o o . . . o . o   o o o . o . . . o o . . . . @ ",
"o . . . .   . . . . . . . . o   o o . o o . . o . . . o . . X o   . . o . . . . . . . . o . . .   o . . . . .   o . . . . . . o ",
".   . . .   . . . . . . . . .   . . . . . . . . . . . .     o .   . . .     .   . .   . . . . .   X . . . . . . . . .   . .   . ",
". . .       .       . . . .     . . . . . . .   . .   . o   . .     . . . . .   . .       .   .   . . . . .   . . .   . . .   o ",
".           .                   . .   . .     . .     .             .                   . .       .             .     .       . ",
"                                  .               .     .                 .                       .                   .       . "
};
