/* XPM */
static char *collectibe1[] = {
/* columns rows colors chars-per-pixel */
"22 32 37 1 ",
"  c None",
". c #252525",
"X c #262626",
"o c #2C2C2B",
"O c #2D2D2D",
"+ c #2E2E2D",
"@ c #2F2F2F",
"# c #3C3C3C",
"$ c #3E3E3E",
"% c #30394E",
"& c #303950",
"* c #4B4B4B",
"= c #4D4D4D",
"- c #515151",
"; c #525252",
": c #696867",
"> c #6B6B6A",
", c #6D6D6D",
"< c #7F7F7F",
"1 c #476BBF",
"2 c #486CC0",
"3 c #6D89C8",
"4 c #6C89C9",
"5 c #6F8BCA",
"6 c #6F8CCB",
"7 c #708BC8",
"8 c #708BC9",
"9 c #708BCA",
"0 c #718CC9",
"q c #718CCB",
"w c #708DCB",
"e c #728DCB",
"r c #718DCC",
"t c #718ECD",
"y c #738FCC",
"u c #728FCD",
"i c #828282",
/* pixels */
"                      ",
"                      ",
"                      ",
"                      ",
"                      ",
"                      ",
"          21          ",
"          33          ",
"          uu          ",
"          3u          ",
"          3u          ",
"          uu          ",
"          uu          ",
"          uu          ",
"          3u          ",
"          3u          ",
"          uu          ",
"          uu          ",
"          %%          ",
"         O,:O         ",
"         X,,X         ",
"          OO          ",
"          $$          ",
"          **          ",
"          ;;          ",
"          i<          ",
"                      ",
"                      ",
"                      ",
"                      ",
"                      ",
"                      "
};
