/* XPM */
static char *_7be61bb928bd95d6aee4c6c8cf95dd51744717091[] = {
/* columns rows colors chars-per-pixel */
"64 64 209 2 ",
"   c #000001",
".  c #0E0E0E",
"X  c #03011E",
"o  c #03081E",
"O  c #151515",
"+  c #1A1A1A",
"@  c #030224",
"#  c #050927",
"$  c #0D0D26",
"%  c #04042B",
"&  c #0B072A",
"*  c #04092B",
"=  c #110625",
"-  c #11042D",
";  c #050335",
":  c #080736",
">  c #050B35",
",  c #090831",
"<  c #06053C",
"1  c #09063C",
"2  c #04093D",
"3  c #09093D",
"4  c #160734",
"5  c #120A3F",
"6  c #0D1639",
"7  c #1C1A35",
"8  c #201F3A",
"9  c gray14",
"0  c #2C2C2C",
"q  c #2C2D30",
"w  c #363636",
"e  c #060641",
"r  c #0A0544",
"t  c #040B44",
"y  c #0A0945",
"u  c #0C054C",
"i  c #040D4A",
"p  c #0C0A4C",
"a  c #110742",
"s  c #130946",
"d  c #15074B",
"f  c #1A074D",
"g  c #12094D",
"h  c #1B0A48",
"j  c #0B1644",
"k  c #04104F",
"l  c #0A144C",
"z  c #0E0652",
"x  c #0C0C52",
"c  c #0A0E56",
"v  c #110655",
"b  c #1D0653",
"n  c #130B53",
"m  c #1A0955",
"M  c #14075C",
"N  c #1B075C",
"B  c #140A5A",
"V  c #1A0B5B",
"C  c #041253",
"Z  c #0D1957",
"A  c #06155B",
"S  c #171B56",
"D  c #151D5D",
"F  c #26064E",
"G  c #34094A",
"H  c #210654",
"J  c #22075D",
"K  c #2C075B",
"L  c #24085C",
"P  c #350857",
"I  c #1A2857",
"U  c #053B5D",
"Y  c #2C2D46",
"T  c #282F52",
"R  c #263251",
"E  c #0B0E61",
"W  c #170760",
"Q  c #1B0763",
"!  c #170960",
"~  c #1A0962",
"^  c #1F0868",
"/  c #0F1F62",
"(  c #0C126E",
")  c #161062",
"_  c #1B1065",
"`  c #1B1D63",
"'  c #1D1E6B",
"]  c #0B1373",
"[  c #0B167D",
"{  c #0B197E",
"}  c #220765",
"|  c #2B0763",
" . c #230B64",
".. c #2B0A65",
"X. c #240769",
"o. c #2A076D",
"O. c #220A69",
"+. c #2B0A6C",
"@. c #330766",
"#. c #30076F",
"$. c #3C076C",
"%. c #330B6C",
"&. c #390A6E",
"*. c #231E6D",
"=. c #341F67",
"-. c #2F0770",
";. c #2D0870",
":. c #320771",
">. c #3B0775",
",. c #360874",
"<. c #3D0A74",
"1. c #3E0878",
"2. c #241F72",
"3. c #2D1D76",
"4. c #0F2268",
"5. c #162261",
"6. c #1A2164",
"7. c #1C2768",
"8. c #1C2A6B",
"9. c #07386A",
"0. c #112773",
"q. c #112876",
"w. c #182976",
"e. c #23256C",
"r. c #24286C",
"t. c #272475",
"y. c #232A73",
"u. c #25297B",
"i. c #420C5A",
"p. c #470B68",
"a. c #410777",
"s. c #430977",
"d. c #450779",
"f. c #4A077A",
"g. c #430979",
"h. c #4B097C",
"j. c #560D73",
"k. c #5A0D77",
"l. c #52087E",
"z. c #5A0E78",
"x. c #06456E",
"c. c #444444",
"v. c #45445C",
"b. c #4E525D",
"n. c #545564",
"m. c #595767",
"M. c #5B5A6B",
"N. c #6E6E6E",
"B. c #747474",
"V. c gray49",
"C. c #0A1B81",
"Z. c #520880",
"A. c #074B81",
"S. c #05538C",
"D. c #055C97",
"F. c #05629D",
"G. c #3253A4",
"H. c #3457AB",
"J. c #375CB6",
"K. c #385DB7",
"L. c #365FBC",
"P. c #385EBB",
"I. c #0564A0",
"U. c #3760BF",
"Y. c #3861BE",
"T. c #4565B2",
"R. c #4768B6",
"E. c #4E6CB3",
"W. c #496BBB",
"Q. c #516EB4",
"!. c #5370B6",
"~. c #5372BC",
"^. c #3963C4",
"/. c #3767CA",
"(. c #3966C9",
"). c #396ACD",
"_. c #376BD0",
"`. c #386BD1",
"'. c #496FC2",
"]. c #4A71C4",
"[. c #5376C2",
"{. c #5579C6",
"}. c gray55",
"|. c #999999",
" X c #A6A6A6",
".X c #ABABAB",
"XX c #B4B4B4",
"oX c #BCBCBB",
"OX c #8F9FC9",
"+X c #97A7D0",
"@X c #A7B4CB",
"#X c #ACB5CD",
"$X c #AEB9D3",
"%X c #B3BDD5",
"&X c #B4BFD9",
"*X c #B7C0D6",
"=X c #B6C3DC",
"-X c #BBC5DD",
";X c #BBC7E1",
":X c #BDCAE5",
">X c #C3C3C3",
",X c #CBCBCB",
"<X c gray83",
"1X c #DFDFDF",
"2X c #C1CDE6",
"3X c #C1CDE8",
"4X c #C6D2EC",
"5X c #C9D5EF",
"6X c #CAD7F1",
/* pixels */
"; ; ; ; ; ; ; ; ; ; ; ; ; ; ; ; ; ; ; ; ; ; ; ; ; ; ; ; ; ; ; ; ; ; ; ; ; ; ; ; ; ; ; ; ; ; ; ; ; ; ; ; ; ; ; ; ; ; ; ; ; ; ; ; ",
"; ; ; ; ; ; ; ; ; ; ; ; ; < ; ; ; ; < ; ; ; ; ; ; ; < ; ; ; ; ; ; ; ; < ; ; ; ; ; ; < ; ; ; ; ; < ; ; ; ; ; ; ; ; ; < ; ; ; ; ; ",
"; ; < < ; < < ; < ; < ; < ; < < ; < ; < < ; < ; e ; < ; 1 3 e 3 e 3 3 1 < < < < < ; < ; < < ; ; ; < < < ; < e ; < ; < ; ; ; < ; ",
"< < < < < < < < e < < < e < < < < < e < e < e < < e < < S G.G.G.H.G.H.I < < 1 < < < < e < < e < e < < < < < e < < < < < < < < e ",
"e e e e e e e e e e e e e e < e e e e e e e e e e e e e D /.^.^.(.U.`.8.< e 1 e e e e e e e e e e e e e e e e e e e e e e e < e ",
"r r r e r e r r r e r r e r e r e e r r r e r e r r e e S P.T.OX+XE.U.6.e e r r r e e e r e e r r e e e r e r e r e r e r r r e ",
"r r r r r r r r r r r u u r u r r u r r r u r u r r r r ` /.].2X6X{.`.8.r u u r r u r r r u u r r r r r u r u r r r r r r r r u ",
"u u z u u u z u u z r u u u u u u u z u u u u u z u z u ) J.T.#X%XQ.P.6.u u u u u u z u u u r e e e u z u u u u u z u u z u r u ",
"u z u u H v u z z u z z z u z u z u z u z u z z z u z z ` (.].:X5X{.).y.u z u z u u z u r r e < < e r z z u z z z z z u z u u u ",
"z z z u f v z z z z z z z z z z z z z z z z z z z z z z ` J.T.#X&XQ.P.e.z z z z z z z u e e < < < e e z z z z z z z z z z z u z ",
"z v z z r v z z z z z z v v z M z z M z z z M v z v z z 7.(.].;X4X{.`.u.v z v v z z z u e e r i r e e z z z z z z z z z z z z z ",
"B B B v y v B B M M M M M v M v M M B M M M v M M M B M ' U.W.$X-XQ.U.u.z M B M M M B z e r i t t e e c M M M v z M M c M M c v ",
"B B z r 2 b N M M M M W M M M M M M M M M M M W M M M M 2.U.W.=X:X~.(.u.M M M M M M M v < < e < < < e M M M M M M M M M M M M M ",
"M z 2 < < < g M W W W W M W W W W W W W W W W W W W W W 2.^.W.=X2X~.).u.N M N N M M M v e e e e < < < M W W W W M W M W M W M M ",
"W z 2 t t 2 < z W W W W W ~ ! ~ Q ~ ~ ~ ~ Q Q Q Q Q Q W 2.L.W.$X-X!.^.u.Q Q } N W Q Q v e i i t < < e M Q ~ W Q W W ~ W W W W W ",
"~ z A A A t < r W Q W ^ ^ ~ ^ ~ Q Q Q ^ Q Q Q Q ^ Q Q Q 3.(.'.:X5X{.).u.Q Q m v Q Q Q v e e r < < < e W Q Q Q Q Q Q Q W M W ^ W ",
"^ z i i i t < e Q O.^ Q O.X.^ ^ ^ ^ O.O.^ ^ O.O.O.^ O.Q 2.P.T.#X%XQ.^.u.B n p g Q ^ } M e 1 < < < < 1 Q ^ ^ ^ ^ ^ ^ ^ ^ B Q O.^ ",
"O.B i i i e 3 e Q X.X.X.X.X.X.^ X.o.X.X.X.X.X.X.X.X.X.X.3.(.].2X5X{.`.u.p 2 > 3 m Q X.N e t e 1 < 1 r } ^ X.X.X.X.X.V v p m X.X.",
"X.M e i i < 2 r } o.X.o.o.o.o.o.o.o.X.} o.o.;.o.o.o.o.o.3.P.T.#X%XQ.Y.y.y 3 3 2 > g o.N y e < 1 < < 3 ..o.X.X.o.X.x e 2 2 y O.o.",
"o.m 2 e t 1 3 y o.-.-.o.o.;.;.;.o.;.X.} ;.;.;.;.-.-.o.} t.(.].2X5X[.).r.s h h 3 : d o.N e e e 3 y < r o.;.;.-.-.m e 2 2 2 < V o.",
"o.b 2 3 1 1 1 y o.:.#.:.:.:.:.:.#.#.....-.:.:.:.#.#.:.g *.P.R.#X*XQ.Y.r.e l e 1 : d #.J e t p t t 1 a o.#.#.o.:.m 2 s 2 < 1 d :.",
",.V e k i e < a #.,.,.,.,.,.,.,.| u u V :.,.,.,.,.<...y D /.].;X4X[.).r.2 e 2 3 1 f ,.L e e e t t < y Q  .#.,.,.m 2 p e t 1 f ,.",
",.J 3 e 2 3 3 e ..>.>.>.>.>.<...e 2 1 1 | >.>.>.>.| a 3 S P.W.%X2X~.^.r.1 3 1 1 1 f >.| e 3 y t e 1 < i i X.>.>.m < y t 2 1 f >.",
"1.J t e 3 e e 3 J a.1.1.1.1.s.b < 3 e 1 b a.a.a.>.h 3 1 S ^.W.&X-X~.(.r.1 e p 3 : f >.| e e e e e 1 3 k k ..g.1.V e t e < < b 1.",
"1.L i k y t 3 e ..s.s.s.g.g.s.b i C C 1 H s.s.f.a.s 5 F =.(.'.=X2X~.(.r.< 1 r 1 1 F d.@.1 < e 1 1 1 e i k +.f.s.b e t e 1 1 b s.",
"g...2 i k 2 2 e ..f.g.s.s.h.f.b t i i 3 f <.f.f.f.f 1 y 5.L.R.$X-XQ.^.8.1 3 y y 3 H d.@.e 1 r e 1 1 < t i b >.f.b e p 3 1 1 b f.",
"h...i y k y 2 y ..Z.<._ %.Z.l.H e p i 1 p ) s.z.l.f 5 d 5./.].:X5X{.).r.r i p 3 5 a >.@.e 1 y 3 1 < < > : : K l.V e i e r 1 H f.",
"<.L t e y e e t +.g.O._ +.l.l.H e t p r p ) s.h.@.d 3 r / J.T.@X%XE.L.8.1 3 p e 3 e @.$.r r e 3 1 2 t t 2 > K Z.L e y p y e s | ",
"p p i y 1 y y y %.,.V ) _ +.+.n e t e 3 g _ h.s.x e r 1 D (.].:X6X{._.y.r p y y y y &.p.r r y r 1 t k k t > K Z.m y p c r r y x ",
"p p i i i y r i %.&._ V V _  .n e p a y n  .s.%.V g 3 y 6.K.T.#X%XE.L.r.u p r a a y L K r r r y e e t t t 2 K h.B p y i y y u c ",
"p p t i p y p p &.s.S t e n ..n y p y y g  .&. ._ g y y 6.(.].:X6X{.).y.r p y s a e 2 2 3 3 y a e t t t t > K s.~ x p c p y u x ",
"g p i p i p y x ..%.p 2 2 y  .m y s u p n +.&. . .g y y I P.R.#X=XQ.^.r.u x x s y 2 2 t 2 e u a y t i k t 2 g  .~ n x p y a p c ",
"n g i p p p p n D  .c t 2 t  .m g u p g n +.&.+.O.m a y 6.^.W.=X2X[.(.y.g x x g y t t t t 3 g g e e t 2 2 2 u  . .n p p s s u p ",
"g p C C A y p c B  .p l t t V m l n l g g g g l ..m s u 6.Y.W.&X-X~.^.y.g v x d y t 2 t 2 y m g u 2 i k t 2 u V V p u n g u t 2 ",
"g x p p p u p n ~ +.x t t t x n g n n g y 2 2 2 m n u s 6.^.R.&X;X~.^.8.u g m m p > 2 i t y f g p 2 t i t 2 p c c p x c n i t 2 ",
"t y t y u c x V _ +.g t t t Z n x m n y t 2 t 2 3 y m x ' ^.'.;X3X{./.8.3 n m m p 2 t k 2 i m i t t t t l > y n c p g n n p i C ",
"2 2 2 p n x g V V V x t i i n B n n m u t t k 2 t y m n *.J.T.#X*X!.Y.8.e B V m g t 2 t 2 p m y t i t t t 2 p n x g p c n s i k ",
"k t 2 p n c n V _ n k t e t B V V V m p t t i 2 2 p m m e.^.].2X6X{._.8.e V V V l t t t 2 s V i 2 t 2 k i 2 p n p t t p n n t k ",
"k t t n n V V V V B p t C t x V V V V l i i i t 2 p n p S I R b.n.R I j i m x l t t t i i p V i t t t t t 2 p V t t t p V n t k ",
"k t t p x V V x t i t l l l n V m p u i t t i t t p p k 5             # y V i i t i t i t p V t t i k k k 2 t p k k t t k t t i ",
"k t t t i x V l t t t i i t x B V i t t k t t i t p i * 7 c.w .   w c.7 * h t t i i t k t t c t t t t i k t t t t k i 2 t t i k ",
"k i i t i x L i i i i t t i k n m i t t t k k i t i $   q >X X.   |.,Xc.  o i i i t k k k i i i i k i t t t i t t i i i i i i i ",
"k k i i k x V k i i i i k k i p n l k k k k k i i k #   q XX|.q 0 }.oXw   o k C k k k k k t k k k i t k k k i i k k k i k i i k ",
"k k k k k k k k C C k i k k k k k k k k k k k k k C *   q oXoX<X1XXX>Xc.  o k C k k k k k k k C k k k k k k C k k k k k k k k k ",
"C C C C C C C C C C C C C C k C C C C C k C C C C C >   q .X.X,X<X.XXXc.  # C C C C C C A C A C C C C C C C C C C A C C C C C C ",
"A A A A A A A C A A A A A A A A A A A A A A A A A A C k 6 + O + + + O 6 l C A A A A A A A A A A A A A A A A A A A A A A A A A A ",
"A A A A A A A A A A A A A A A A A A A A A A A A A A A A j             6 A A A A A A A A A A A A A A A A A A A A A A A A A A A A ",
"p p p x p p x p e y p u x x x k p p x p y x p i p x p p 3   . N.B.+   > p p c p p i c y p p p c c p p k p x p p x p y p p p c l ",
"{ C.[ [ C.{ [ ] c [ [ { { { [ { C.C.[ ] ] C.[ [ { [ [ [ c   + oX>X0   l [ C.C.{ { { { ] E [ { [ { { { { C.[ [ C.C.C.( ] { [ [ { ",
"F.F.F.F.F.F.F.A.9.F.F.F.F.F.F.F.I.D.I.A.A.F.F.F.F.F.F.I.x.  O |..X9   U I.F.F.F.F.F.F.D.9.D.F.I.F.F.F.F.D.I.I.D.D.I.S.9.F.F.F.F.",
"q.q.q.q.q.q.q./ Z q.q.q.q.q.q.q.q.q.q./ / 0.q.q.q.q.q.w.Z   + XX>X0   j q.q.q.q.0.0.q.0.i 4.q.q.q.q.0.q.q.q.q.q.q.q.4.Z q.q.q.q.",
"k.k.k.k.k.z.z.p.P z.z.z.z.z.z.z.k.k.z.i.p.k.k.k.z.k.z.z.i.  O B.V.+   G z.z.z.z.k.k.k.k.G j.z.z.z.k.k.k.z.z.z.z.z.z.p.P z.k.k.k.",
"4 4 4 4 4 4 4 4 - 4 4 4 4 4 4 4 4 4 4 4 4 4 4 4 4 4 4 4 =             = 4 4 4 4 4 4 4 4 - 4 4 4 4 4 4 4 4 4 4 4 4 4 - - 4 4 4 4 ",
"% % % % % @ @ @ @ @ @ @ @ @ @ # @ @ @ @ @ @ @ @ @ % % % & + + + + + + $ % % % @ @ @ @ @ @ @ @ @ @ @ @ @ @ @ @ @ @ @ % * * % % % ",
"; : 1 1 1 < % % > ; % % % ; ; % @ ; % % % ; % % % > < ; T XX.X.XXX XXXv.; < : % % % ; % % ; ; % % ; % > ; % ; % ; % 2 1 : : : : ",
"% & % % & 1 ; @ % @ # @ # @ * @ * @ * # * @ # @ , < % % Y XX.X.XXX.XXXv.% @ : ; @ # # * @ * # % # # @ @ % @ # # @ : , ; % % ; & ",
"% ; ; % % ; , @ % % ; * % @ * % % % % ; % % * @ , ; @ ; $ + + + O O + $ , % ; ; @ * * ; ; * ; % * % @ % * ; % ; @ , & % ; ; % % ",
"@ @ % % % % % @ % % % @ % @ % % % % % @ % @ % @ % % % @ o             X % @ , @ @ % @ @ @ @ @ % % * @ % @ @ @ % @ ; % @ % @ % @ ",
"@ @ @ % @ % % @ @ % @ @ @ o @ % % % @ @ @ @ % @ % @ % @ 7 B.N.N.B.N.B.w @ @ @ @ @ @ @ @ % @ % % @ % % @ @ @ @ @ @ % % % % @ @ @ ",
"@ @ @ % @ @ @ @ @ @ @ @ @ @ @ @ @ @ @ @ @ @ @ @ @ % % @ Y ,X>X>X,XoX<Xv.@ @ % % @ @ @ @ @ @ @ @ @ @ @ @ @ % @ @ @ @ @ @ @ @ @ @ ",
"@ @ @ @ @ @ @ @ @ @ @ @ @ X @ @ @ X @ @ @ @ X X @ % @ @ 6 m.n.m.M.n.M.8 @ @ @ @ X X @ X @ X X @ @ @ @ @ @ @ @ @ @ @ @ @ @ @ @ @ ",
"@ @ @ @ @ @ @ X @ X @ X @ X @ X @ X @ X X @ X X @ @ @ @ @ @ X X X X X @ @ @ @ @ X X @ @ @ @ @ X @ @ X @ @ X X X X @ @ X @ @ X @ ",
"X X @ @ X X X X X X X X X X X X @ X X X X X X X @ @ X X @ X X X @ @ X @ X X @ @ X X X @ X X X X X X X X @ @ X X X @ @ X X X X @ ",
"X X X X X X @ X X X X X X X X X X X X X @ X X X X X X X X @ X X X X @ X X X @ X X X X X X X X X X X X X X X X X X @ X X X X X X "
};
