/* XPM */
static char *exit1[] = {
/* columns rows colors chars-per-pixel */
"32 32 105 2 ",
"   c #070D1B",
".  c #0A0E1E",
"X  c #0B101F",
"o  c #0C0F20",
"O  c #130E23",
"+  c #0C1123",
"@  c #071629",
"#  c #0D152A",
"$  c #061A2D",
"%  c #0E182D",
"&  c #111226",
"*  c #12152B",
"=  c #1E122E",
"-  c #131A2D",
";  c #0F1731",
":  c #061E31",
">  c #0D1C33",
",  c #0E1F38",
"<  c #141731",
"1  c #191531",
"2  c #131C33",
"3  c #191934",
"4  c #111E39",
"5  c #062236",
"6  c #0C2237",
"7  c #0C233C",
"8  c #032A3F",
"9  c #0E2E3F",
"0  c #172033",
"q  c #192235",
"w  c #12223C",
"e  c #1C2539",
"r  c #1B253C",
"t  c #1B263C",
"y  c #1C273D",
"u  c #192339",
"i  c #152F3D",
"p  c #11283C",
"a  c #0E323F",
"s  c #12323E",
"d  c #12323F",
"f  c #12333F",
"g  c #0D2741",
"h  c #032E44",
"j  c #0C2A44",
"k  c #0D2A48",
"l  c #092C48",
"z  c #132640",
"x  c #152440",
"c  c #142D45",
"v  c #142E45",
"b  c #1F2B41",
"n  c #02354B",
"m  c #03344B",
"M  c #0B354E",
"N  c #143240",
"B  c #153340",
"V  c #143740",
"C  c #133144",
"Z  c #143144",
"A  c #1A3D43",
"S  c #153348",
"D  c #163549",
"F  c #17374A",
"G  c #183849",
"H  c #073757",
"J  c #063753",
"K  c #093251",
"L  c #013C53",
"P  c #023C54",
"I  c #073B5C",
"U  c #073C5D",
"Y  c #083F62",
"T  c #1B484B",
"R  c #1C4B4D",
"E  c #1D554D",
"W  c #094459",
"Q  c #205551",
"!  c #215D50",
"~  c #235C52",
"^  c #245F52",
"/  c #226050",
"(  c #246051",
")  c #246551",
"_  c #286D57",
"`  c #2A7358",
"'  c #2C7659",
"]  c #2F795C",
"[  c #2E7E5D",
"{  c #094C61",
"}  c #27697B",
"|  c #2C778A",
" . c #1D8FA7",
".. c #2A97AC",
"X. c #2499B0",
"o. c #209EB6",
"O. c #2A9EB4",
"+. c #20A1B9",
"@. c #25A3BB",
"#. c #2BA3BA",
"$. c #27A9BF",
"%. c #2AA8BE",
"&. c #27ACC3",
"*. c #27AEC5",
"=. c #29ADC3",
/* pixels */
"+ + + X X X X + + X . . X X + + X X X X o O o + . X + + + o X X ",
"- 2 - q q q q X X + + o X + + + + + + + + + + + + + + + + + + + ",
"q q - u u u b + + + + X + + . + + + + + + + + . . + + + + + + + ",
"- - & 2 - 2 2 + + + + + . # 2 2 2 > > 2 2 2 2 2 + . + + + + + + ",
"0 0 0 q - q q + + + + . + - 6 f f f f Z Z A p 4 4 X . + + + + + ",
"0 q u u - q u + + + . + * % a [ E / ` / ~ [ T > 2 2 X X + + + + ",
"- - 2 - - - - + + . + * # > 9 ` ~ / _ ~ T Q Z , % 2 2 + + + + + ",
"2 0 - 2 q u q + + + - + 2 w w Z G F S S c c x x w # 2 2 + + + + ",
"q q * 2 u u u + . # % # 2 2 # # - - - % % # # 2 w 2 # 2 + + + + ",
"- - + - - - - + . + # 2 # . . . . . . . . .   . % 2 # > + + + + ",
"2 q q q - q q + . + # 2 + . + + + + + + + + + . + 2 % 7 $ : # + ",
"2 u u u - 0 q + . + # 2 + . + + + + + + + + + + + 2 > l W { 5 # ",
"- - - 2 & - - + o + # 2 # + + + # + + + + # # + + > > K  .X.h # ",
"q q - q q u q X . + # 2 # + + + + + # # # # # + + , , I o.$.m % ",
"u q - q u u u + + + # 2 # + + + + + # # # # + + + 4 7 I +.*.H > ",
"- - & - 2 2 - + + + # 2 # + + + + + # # # + # + + w 7 I @.*.H : ",
"2 q q q - q q + o + + 2 # + + + # # # # # + # + + w 7 Y @.*.H > ",
"2 u q u 2 2 q + o o + 2 # + + # # # # # # + # + + > 7 I @.*.H > ",
"- - 2 2 - - - + . . + 2 # + + # # # # + + + # + + > 7 H @.*.H > ",
"2 q - q q u q + . o * 2 # + # + # # # # # # # + + > 7 J O.%.m > ",
"u u - q u u u + . o * 2 # + # # # # # # # # # + + > > M O.#.m % ",
"- - & - - - 2 + . & * 2 # + + + + # # # # + + + + > > l ..O.8 # ",
"2 0 q q - q q + . & * 2 # + + + + # + + + + + + . 2 > 7 } | : # ",
"- 2 q q - 2 q + . + * 2 + + + + + + + + + + + + . # # > > p + + ",
"* - - - & - - o . & * < # + + + + + + + + + + o + ; # > # # + + ",
"- - + - - - - + + * * * < + . + + + + X + . . + # # + # + + + + ",
"& * + * * * * + & * * + # + # # # # # # + + + # + # + + + % + # ",
"+ X X + + + . * = * * < # # # # > # > # # # # > 7 > > @ + + + > ",
"+ & + + O O O = 1 < 2 2 2 2 > , 2 2 2 4 , 4 7 7 j j g j j j j j ",
"2 2 2 2 2 2 2 < * 2 2 4 4 2 2 2 2 % 2 4 w w w w w w 7 j M M j j ",
"+ + + + + + + + + + + + + + + + + + + + + + + + + + + + + + + + ",
". . . . . . . o . . . . . . . . . . . . . . . . . . . . . . . o "
};
