/* XPM */
static char *ChatGPT_Image_15_Nis_2025_14_48_1744717757[] = {
/* columns rows colors chars-per-pixel */
"64 64 204 2 ",
"   c #00010E",
".  c #000411",
"X  c #01071C",
"o  c #01081D",
"O  c #080819",
"+  c #0F111F",
"@  c #12101E",
"#  c #2B111D",
"$  c #3C1514",
"%  c #020324",
"&  c #0A0724",
"*  c #010A23",
"=  c #0B0A25",
"-  c #04062B",
";  c #0A062D",
":  c #02092A",
">  c #0D0B2A",
",  c #110927",
"<  c #10062F",
"1  c #130B2A",
"2  c #1C0D2D",
"3  c #0E1029",
"4  c #03132F",
"5  c #141523",
"6  c #1C1B25",
"7  c #12132B",
"8  c #17192C",
"9  c #1D1C2A",
"0  c #1C132A",
"q  c #0C0732",
"w  c #050B34",
"e  c #090D35",
"r  c #050D3B",
"t  c #080E39",
"y  c #110635",
"u  c #1B0537",
"i  c #150E35",
"p  c #1A0E35",
"a  c #130739",
"s  c #1D0639",
"d  c #150A3B",
"f  c #1A0C3C",
"g  c #021430",
"h  c #03133C",
"j  c #091039",
"k  c #1B1037",
"l  c #1C1D32",
"z  c #1C103B",
"x  c #181937",
"c  c #221E2B",
"v  c #27182C",
"b  c #33162D",
"n  c #210D3B",
"m  c #241133",
"M  c #22113E",
"N  c #2C133A",
"B  c #291237",
"V  c #280D2A",
"C  c #1F2034",
"Z  c #23222C",
"A  c #2B262E",
"S  c #33252E",
"D  c #37282E",
"F  c #232236",
"G  c #252539",
"H  c #292639",
"J  c #2D2A3D",
"K  c #2A2333",
"L  c #342D35",
"P  c #37323D",
"I  c #541D18",
"U  c #5D211D",
"Y  c #64231E",
"T  c #74271D",
"R  c #4F1A2B",
"E  c #531C2C",
"W  c #681F2C",
"Q  c #651D2C",
"!  c #5B222D",
"~  c #57212E",
"^  c #443330",
"/  c #453832",
"(  c #513D33",
")  c #6C212D",
"_  c #73272E",
"`  c #75292E",
"'  c #7D2B25",
"]  c #772A31",
"[  c #4E463F",
"{  c #5C4435",
"}  c #594636",
"|  c #634936",
" . c #6E563A",
".. c #7A623C",
"X. c #1C0C41",
"o. c #170D41",
"O. c #041641",
"+. c #031945",
"@. c #031C49",
"#. c #1E1041",
"$. c #030E40",
"%. c #220C44",
"&. c #260C48",
"*. c #2B0D4A",
"=. c #290F44",
"-. c #300E4D",
";. c #241242",
":. c #291345",
">. c #271248",
",. c #2D144A",
"<. c #32154D",
"1. c #34174C",
"2. c #351551",
"3. c #3A1754",
"4. c #3C1854",
"5. c #3E1858",
"6. c #350E50",
"7. c #1E2446",
"8. c #212749",
"9. c #262A4C",
"0. c #292D4E",
"q. c #252742",
"w. c #2A2E51",
"e. c #2E3054",
"r. c #313255",
"t. c #353659",
"y. c #3A395D",
"u. c #3B3A57",
"i. c #052C63",
"p. c #072C68",
"a. c #03316A",
"s. c #3C3E63",
"d. c #431B5A",
"f. c #433D44",
"g. c #403E5F",
"h. c #4E1E60",
"j. c #562165",
"k. c #5C236B",
"l. c #433F61",
"z. c #642572",
"x. c #682775",
"c. c #4F4741",
"v. c #514942",
"b. c #49455B",
"n. c #504852",
"m. c #434164",
"M. c #4C4365",
"N. c #4A476A",
"B. c #4C496C",
"V. c #444468",
"C. c #534C6C",
"Z. c #534868",
"A. c #5C5268",
"S. c #514D71",
"D. c #5B5375",
"F. c #555072",
"G. c #615766",
"H. c #635966",
"J. c #655B69",
"K. c #695E6A",
"L. c #635A7B",
"P. c #695C7C",
"I. c #635676",
"U. c #6D616C",
"Y. c #746579",
"T. c #802A1F",
"R. c #812C20",
"E. c #9D3429",
"W. c #933232",
"Q. c #A23527",
"!. c #A5392D",
"~. c #A9392C",
"^. c #B13A28",
"/. c #8B673D",
"(. c #936C3F",
"). c #9B713F",
"_. c #C54030",
"`. c #9B7B42",
"'. c #967541",
"]. c #876C40",
"[. c #A27942",
"{. c #A98244",
"}. c #B48C46",
"|. c #B38645",
" X c #CA9448",
".X c #CA994A",
"XX c #DEA34B",
"oX c #E1A44C",
"OX c #EAAE4F",
"+X c #E6AA4D",
"@X c #FDBB51",
"#X c #F6B751",
"$X c #FFC454",
"%X c #FFC955",
"&X c #736585",
"*X c #7C6B8A",
"=X c #766588",
"-X c #6D6182",
";X c #836F8E",
":X c #86748A",
">X c #9C858E",
",X c #A68D92",
"<X c #AA9194",
"1X c #A0888C",
/* pixels */
": : * - - - * - : : - : - : * - - * - * - - - - * - - * - - * - - * : - - * - - - * - : : * - - - * - * - - - * - * - - : : * * ",
": - : * : w - - - * : : : - - - - - - - - - : : : : : : - - : : - - : : : : : - - - - - - - : - : : : : : : - - - - : : - : - - ",
": ; - : - - ; - - - - : ; - - - : - - : - - - : - : - - : - - - - - - : ; - - - - w - - - - - - : : : - : - - - : - ; : ; - - - ",
"- : ; ; - ; - - : - ; ; : - - : q - - - : - ; : ; ; - - q - - - : - ; ; ; - - : - ; - - : - - - - ; ; - q - - - - - : ; ; - - : ",
"q ; - ; q ; q - q - - q q ; w ; - q - q q - - q ; ; q - q - - q q - - q w - q - - q ; ; ; ; ; ; q - - - q q - q w ; - q ; q - - ",
"; q q q - q - q q q q q ; ; ; ; q q q q ; q q ; q q - q q q q q ; q q q - q q q q q q ; w q q q q q q q q - q - ; q q q w - q q ",
"q q q q q q q q q q q q q q e y a q q q e e y y q q q q q y q q q q q q q a q e a q q q q q q q y q q q y q q q q q q q q q q q ",
"e q q q e q q y q - - - - - - - % - - - - - % % - - - - - - - - - - ; - - - % % % - - - % - - - - - - - - - - q q q q q q q q q ",
"y e y y e y y a % m N N N 2 B N N N N N 2 N N B N N N N 1 B N N B N m 1 N N N N N N N 2 B N N N N m B N N N B O a q q q a q q y ",
"a y y a a y a a O j.x.z.z.d.k.z.z.z.z.k.5.z.z.z.z.z.z.z.3.j.z.z.z.x.h.4.z.z.z.z.z.z.z.5.j.z.z.z.x.d.j.z.z.z.j.& d a a a a a a a ",
"a a a a a a a a & :.<.<.,.k <.<.1.,.,.:.n 2.<.<.<.1.2.2.n <.1.<.,.2.=.n 2.2.1.1.<.,.2.M <.<.,.1.<.d ;.1.,.-.:.O a a a a a a a a ",
"a a d q a a a a O u M f z z M z z z M 2 : w - w - ; w ; : : w ; w ; : - - ; - w : - w : q f z M z z M z p ;.f O d d d d d d d a ",
"o.a a q : a d o.O :.5.M ,.4.1.5.z <.3.@ I U U U ! Y Y Y Y Y Y Y Y Y Y Y Y Y Y Y Y ) Y Y $ 2 5.1.3.3.3.:.M 5.,.& o.s a X.d a a X.",
"a X.a : : : d X.= 1.5.;.<.5.3.3.M 2.,.V _.` ` ) W Q ) _ W ) ] ` Q _ ` ) ` ) W ) ) W _ W.^.; 2.3.3.3.5.,.M d.,.O X.a X.a s o.o.s ",
"s o.a - w w q X.& k z k z M M z i M q # E.- D `.`.{...6 [. .% > `./ Z `.9 ].{.'.).}./ , Q.X f M M M M z i M u & X.s a X.o.X.X.a ",
"o.X.a r $.w ; X.= B <.<.<.:.k <.,.,.o.# !.% | %X X X{., '.$X^ '.#Xv } %XD {.oX@XOXXX{ v Q.& :.1.M z <.<.<.<.;.& X.o.X.X.s s X.X.",
"X.X.a w $.r - X., N 2.1.2.,.z 2.1.1.o.# !.% { @X^ v 5 , ;  X+X#X| % | @XS & & oX/.% > b Q.- ,.1.:.;.3.<.1.2.:.& %.f X.X.X.s X.X.",
"X.%.o.- w w e X.& M 2.1.,.>.k <.,.<.o.# !.- { @X#X$X^ = & ( %X.X1 & { @XS ; 5 oX/.% 7 b E.& ,.1.;.;.<.,.,.1.:.& %.%.o.X.X.%.%.X.",
"%.%.u w r r q &.& k M k z z k z z k e # !.% { @X^ b , 1 & [.OX#X| % { @XS = 1 XX/.% 1 b Q.X f z k k M z f z p & %.%.e - a %.%.X.",
"%.%.a w r r q &.= ;.3.z :.2.<.<.<.z #.# ~.- { $X[.`.(.= ..$X^ [.OX0 { $XD ; 1 OX).% 1 b Q.& ,.1.<.1.1.:.z 2.N = %.q e t q s %.%.",
"%.&.o.: r w q X.& B 2.M ;.1.,.<.,.M f # !.- D }.}..X'.F }...- c }.} A }.9 * - [. .% - v E.& ,.,.<.<.1.;.f 2.n = %.w e e w s &.X.",
"&.&.f r r r e &., k >.i z ;.;.;.M p i # _.E E E R R E ! E E ! E E ! ! R ! ! ! E E ) E _ ^.& M ;.;.;.M x i ;.k , %.w e r w o.&.&.",
"&.&.X.w r r q *., k :.;.:.M k ;.;.:.f O T R.R.R.R.R.R.R.R.R.R.R.R.R.' R.T.T.' R.R.R.' R.I O M :.z z :.:.>.>.k , &.q e e - X.&.&.",
"&.*.X.w q q r -., :.2.<.<.,.z 1.1.1.;.< - * - - - - - - * - - - - - - * - - - - - - * - : i ,.2.>.M 1.<.1.2.:., &.e e r q X.*.&.",
"*.-.n q r w e *.= M ,.,.,.>.k ,.,.,.:.,.,.; u s u s s s < u u u u s s < < s u n n u & =.1.=.,.,.;.z ,.,.:.<.N 1 &.e q r q X.-.*.",
"*.-.X.w e w e o.& p M p z z k z z k z f K v.c.c.c.c.c.c.c.c.[ [ [ [ [ [ [ [ c.L f.v.v.K p n z z z z z k z f p , *.e e e w X.*.%.",
"*.*.&.w t w t X.& :.2.M :.2.2.1.<.z 1.s P <X>X,X,X,X,X,X,X,X,X,X,X,X,X,X,X<X,X:X:X,X<Xf.s :.M 1.1.1.,.k 1.2.:., *.e e r w %.*.o.",
"6.6.%.w e t e X.& M 1.M :.,.,.,.:.z <.y H =XI.M.M.M.M.M.M.M.M.M.M.M.M.M.l.l.M.Z.Z.L.=XH u :.M <.,.,.:.f ,.1.M 1 *.r e r w %.&.d ",
"*.d d w e w e X.O k z k k z k f z i z > l N.u.= . O . X . X . . X . O . O . O . , b.N.l > x i z f z z i f z i , *.e e t w &.,.f ",
"*.w w e e w t X.& M <.,.<.>.x <.:.,.,.1 c -XZ.= . . . . .   .     . .   . . .   1 D.-XG ; <.<.,.;.z :.<.,.,.B , -.e w w w d f o.",
"*.e e w e w e X.& N 2.,.<.>.z <.<.<.<.y H ;XI.= . . . . . . . . . . . . . . . . 7 -X;XJ < 1.,.1.>.z <.<.<.1.;.= *.q e t e e t o.",
"*.t t t e t e X.& k ;.z z k i ;.;.;.;.> x L.M.=   . . . .   . . . . . . . . .   7 M.D.F ; ;.M ;.i k ;.;.;.;.k = d t e t t t e o.",
"z e e e t t e #.= k >.k x ;.;.;.M f ;.> 8 F.m.= . . .   . . . . .     . . . .   7 M.Z.C & k f ;.M ;.;.k i ;.m = f w w e t t e o.",
"d e e w e t t X.& ;.1.;.;.1.<.1.<.n 1.i G &XC.= . . . . . .   . . . . . . . .   7 I.=XJ ; >.;.1.1.,.<.>.z 2.>.= f e e e e e e i ",
"o.t e e e w e X.= k ,.z #.,.>.>.>.k >.q F P.B.=   . . . . . . . .   . . . . .   7 S.P.H < z z ,.>.>.:.z k :.f & o.w e j t t t w ",
"f w t e e t e #.O i z k d k i z k k k > 8 B.y.= . . . . .     . . . . . . . .   3 y.m.l = z z z k k z k k z p = d j w j t t e e ",
"f e e e w w q #.= N 2.1.,.:.k 1.,.,.<.> F -XC.3 . . . .   . . . . .   . . . .   7 I.&XH > <.<.<.;.z ,.,.,.1.:.O j e w j w e t j ",
"j e e j j t j z = M ,.,.<.>.k ,.,.,.,.q G &XA.= . . . . . . . . . . . . .   .   7 L.=XJ ; ,.>.,.>.z ,.,.>.,.;.o j : j t j e w e ",
"j w e j j j j e o k o.z z k i z k z f ; C N.u.+   . . . . . . . . . . . . . .   7 l.B.l > f z z i x z k z z i * e e j t j e e e ",
"e j j e e e e j o M ,.z k >.:.,.>.i ;., Z D.m.+ . . . . .   . . . . . . . . .   7 C.D.G ; z z :.:.:.>.z k >.z = j e > j j j e j ",
"j j j j j j e j o :.1.;.;.<.,.,.,.k 1.q H *XI.= . . . . . . . . . . . . . . .   5 D.*XJ q ;.n ,.,.,.,.>.k 1.:.o j e j j j e e g ",
"j j h h h j j h * i z i k z z z z i z = l S.g.=   . . . . .   . . . . . . . .   3 t.S.C & f d z f z #.k i z p * h j j j j j j j ",
"h h h h h h h h * m >.;.>.z k >.;.;.;.; l D.g.= . . . . . . . .   . . . . . .   7 B.F.F > ;.;.;.z k ;.;.;.;.M o h h h h h h h h ",
"h +.+.h +.h +.+.* M <.,.,.,.z ,.,.,.<.; G ;XA.= . . .   . . . . . . . . . . . . 7 P.*XJ ; ,.,.,.#.#.,.,.>.,.;.* +.h O.O.O.O.h +.",
"+.+.+.+.+.+.O.@.* k ;.#.#.z i #.M M M ; C L.N.= . . . . . . . . . . . . . . .   7 B.D.C > #.z #.d k #.#.#.#.p * +.+.+.O.O.O.O.+.",
"+.@.@.+.@.@.@.@.* i #.i k #.z z k i z ; 8 B.g.= . . . . .   . . . . . . . . .   3 g.V.C - x d k k z z i i z i * @.+.+.O.@.@.@.@.",
"i.a.i.i.i.i.i.a.g ;.,.z ;.,.>.,.,.k ,.> G &XF.= . . . . . . . . . . .     . .   7 D.-XJ > ;.#.,.>.>.>.#.f ,.n 4 a.i.i.i.i.i.i.i.",
"i.i.i.p.i.i.i.p.g z #.f #.#.>.#.#.i ;.; F P.B.=   . . . .   . .   . . . . . .   3 C.L.G ; f f ;.;.#.#.#.i ;.p 4 p.i.i.i.i.i.i.i.",
"2.1.2.6.2.,.2.2.< 1 z d i i i k d i k = 8 s.t.= . . . . . . . . . .   . . . .   3 t.s.l * k i d d i i i d i i , 2.*.,.,.*.<.*.2.",
"h h h h h h h O.* f >.>.>.;.k >.,.;.>.; C D.B.= . . . . . . . . . . . . . . .   7 N.B.G ; >.;.;.#.d >.;.>.#.k * O.h h h h h h h ",
"h h h h h h h h * f ;.#.#.#.i #.;.X.%.; C D.N.= . . . . . . . . . . . . . . .   3 C.D.G ; %.%.%.f k #.X.#.X.p o h h h h h h h h ",
"4 : 4 : 4 : 4 : X 1 d i k i e d d i i % 8 s.t.= . . . . . . . . . . . . . . .   3 t.s.8 % i i i e q k d i d 1 X : : 4 : 4 : : : ",
": : * : * 4 4 * O i X.i i o.X.z z i z > 8 V.t.3 . .   . . .     . . . . . . .   3 y.m.l ; i i f z z z i i f i O : * : 4 : * * 4 ",
"* : * : * * : o . y d > e f a d a ; d % 8 V.u.=                                 * y.m.l % q q d d d d y ; d q   : * * : : * * : ",
"* 4 : : : * o 5 c c Z c c 5 9 c Z 9 Z 6 Z Z 5 6 6 6 6 6 6 + 6 6 6 6 6 6 6 5 5 6 6 Z Z 9 9 6 6 6 9 5 6 6 9 6 6 6 + X * * : * * : ",
"* * * * * * X n.Y.U.U.U.K.g.K.U.U.K.U.K.U.G.u.U.U.J.U.H.U.u.A.U.J.J.J.J.U.b.b.K.H.A.H.H.H.H.H.H.J.u.A.A.A.H.A.U.c.. * * * * * * ",
"* * * * * : . 0.t.u.g.y.y.9.y.g.y.y.y.y.y.u.9.y.y.g.y.y.t.7.t.u.e.u.y.y.y.0.e.y.u.y.y.y.t.t.t.0.e.9.t.u.t.w.t.y.7.. * * : * * * ",
"* * * * o * X G 9.0.e.0.0.8.0.0.0.0.0.0.w.w.8.0.0.0.9.9.8.7.0.9.7.0.9.9.0.7.7.0.9.0.9.9.9.0.9.7.8.7.9.9.9.7.9.0.x X * * * o * * ",
"o * * * o O . X X o X o o o X o X O X X X X X X o o X O X o X X o X O O o o o o X X X o o X X X X O X X X X o X X O O o * o o * ",
"* X o o * o * o o o o o o X o o X X X X o o X o o o o X X X o o o o X X o o o o o o o o X X o o o o X o o X X o o o o o o * o o ",
"X * X X o o o o o * o o o o o o o * X * o o o o o o o o o o o o o o o o o o o o o X * X o o * o o o * o o o o o * o X * o o o * ",
"X o * o o o o o o o o o o o o o o o X X o X o o o X X X X X o o o o o X o o o o o X X X o o X o o o o o o X o o X o X o o o X X ",
"X X X X X X X X o o X o X X o o X X X o o o X X X X X X X X X o o o X o X X o o X X X X X X X X X X X o X X X X X X X X X X X X ",
"X X X X X X X X X X X X X X X X X X X X o o X X X X X X X X X X X X X X X X X X X X X X X X X X X X X X X X X X X X X X X X X X "
};
