/* XPM */
static char *player1[] = {
/* columns rows colors chars-per-pixel */
"32 32 181 2 ",
"   c None",
".  c #030300",
"X  c #0C0000",
"o  c #000B00",
"O  c #020008",
"+  c #08020D",
"@  c #120100",
"#  c #1A0200",
"$  c #001300",
"%  c #001C00",
"&  c #0D1100",
"*  c #0C0411",
"=  c #002400",
"-  c #002800",
";  c #003000",
":  c #2B2D16",
">  c #273C1D",
",  c #333311",
"<  c #3E3128",
"1  c #333F29",
"2  c #483015",
"3  c #47341B",
"4  c #482B26",
"5  c #4A352B",
"6  c #483822",
"7  c #553E2A",
"8  c #553A35",
"9  c #045919",
"0  c #1F5E18",
"q  c #1E531B",
"w  c #274019",
"e  c #365E18",
"r  c #00651F",
"t  c #026314",
"y  c #18661A",
"u  c #0D5C22",
"i  c #115C22",
"p  c #195728",
"a  c #284728",
"s  c #254A26",
"d  c #3D462B",
"f  c #295A2C",
"g  c #26592A",
"h  c #345427",
"j  c #2A5230",
"k  c #335530",
"l  c #0A6423",
"z  c #116A2A",
"x  c #007426",
"c  c #4B4A11",
"v  c #424027",
"b  c #464927",
"n  c #51402F",
"m  c #494431",
"M  c #5C533F",
"N  c #55503B",
"B  c #67463F",
"V  c #654E3F",
"C  c #377C4D",
"Z  c #5B4B46",
"A  c #5D4C4C",
"S  c #5D5144",
"D  c #585F4F",
"F  c #555549",
"G  c #5E4E51",
"H  c #6C4C45",
"J  c #654D4C",
"K  c #6A4C4A",
"L  c #644943",
"P  c #744B48",
"I  c #695249",
"U  c #65594B",
"Y  c #65504B",
"T  c #705044",
"R  c #526142",
"E  c #467B4B",
"W  c #7C6A5F",
"Q  c #7A735F",
"!  c #7C6C65",
"~  c #7B6F6B",
"^  c #766D65",
"/  c #6A7064",
"(  c #7A7163",
")  c #7C736C",
"_  c #767965",
"`  c #7E7671",
"'  c #805954",
"]  c #816D5C",
"[  c #82725F",
"{  c #846E65",
"}  c #8B6964",
"|  c #846E6A",
" . c #8A6E6B",
".. c #8A6761",
"X. c #926B67",
"o. c #867263",
"O. c #8A7265",
"+. c #887861",
"@. c #83736A",
"#. c #8E716A",
"$. c #817F69",
"%. c #847773",
"&. c #8A7270",
"*. c #2C8444",
"=. c #2C8C44",
"-. c #328F48",
";. c #358449",
":. c #2A9449",
">. c #3CA75B",
",. c #2BBB52",
"<. c #34BA53",
"1. c #34B25E",
"2. c #3EB058",
"3. c #3ABC5A",
"4. c #38B563",
"5. c #498758",
"6. c #5E845D",
"7. c #798057",
"8. c #75815B",
"9. c #4AAC5E",
"0. c #489E61",
"q. c #5C9B66",
"w. c #628064",
"e. c #6A9869",
"r. c #7C9B64",
"t. c #7F906E",
"y. c #739867",
"u. c #688370",
"i. c #728370",
"p. c #6D9674",
"a. c #6B9879",
"s. c #7F9070",
"d. c #729B76",
"f. c #44AB65",
"g. c #4EAA65",
"h. c #4AAA6B",
"j. c #54A56B",
"k. c #5CA36B",
"l. c #56AB6C",
"z. c #59AC6B",
"x. c #4CBA6B",
"c. c #51B069",
"v. c #51B764",
"b. c #5DAC74",
"n. c #54AE70",
"m. c #53B675",
"M. c #65A16D",
"N. c #6FA071",
"B. c #6CA37A",
"V. c #2DC05E",
"C. c #38C15F",
"Z. c #30C154",
"A. c #34C161",
"S. c #B3A479",
"D. c #BCA88D",
"F. c #AAB080",
"G. c #C4B28E",
"H. c #C6BA8A",
"J. c #C9BB96",
"K. c #DCBA91",
"L. c #E1BA89",
"P. c #E7B590",
"I. c #E9B794",
"U. c #D6BAA2",
"Y. c #BDC788",
"T. c #BAC686",
"R. c #A5CD9A",
"E. c #B7D89F",
"W. c #BFCEA5",
"Q. c #C3CE94",
"!. c #CFC2A0",
"~. c #E3C0AC",
"^. c #D2CBC5",
"/. c #CFDACC",
"(. c #ECDEC4",
"). c #EBE6C6",
"_. c #F7E3C9",
"`. c #F3E4C7",
"'. c #E2FFEF",
"]. c #FEFFF6",
"[. c #FEFDFA",
/* pixels */
"                                                                ",
"                                                                ",
"                                                                ",
"                                                                ",
"                          . o $ % % % $ o                       ",
"                        o k g k.x.>.>.n.p $ .                   ",
"                    o j 5.% = = <.C.A.1.= $ o                   ",
"      o . . o o o   $ p ;.b.k.k.Z.,.V.4.j.B.a.o   . o o . .     ",
"    $ p.t.8.y.r.r.$ l m.C $ o . <.3.1.n.o . $ $ $ e.e.y.d.w.    ",
"    $ j W.F.Q.T.Y.e 9.f.% o . [.; 2.x.% . ].'.B.$ h E.R.R.s     ",
"      o b S.K.L.L.c y g.$ o . [.- v.r % o o $ e.o J.G.!.b o     ",
"      X 6 G.K.I.P.H.0 z.E $ $ o t 9.c.u % $ % N.. U.~.7 .       ",
"      ^.& : +.D.D.7.q ;.*.*.l 9 :.=.-.=.9 9 i E o ( < X         ",
"          /.. m m d o $ i z g.g.f.= = g.c.l.q.$ o .             ",
"            [.. . . ( $.o o g g b.l.0.z.k.$ $ _ .               ",
"                [.~ #.#.U _ o o % % = % % 6.Q @..               ",
"                [.G J J X @ X (  .@.@.W o.o.{ {  .X             ",
"                X A J @ U _ o $ ! X @ X X X o.X . )             ",
"                X { # Q R $ j.f.X (._._.`.).. s.o i..           ",
"              . ! @ ] M w M.f.x X 3 2 2 3 , $ k p.o o           ",
"              . %.X I N > g j.f.X n 4 3 7 v o d.a.o o           ",
"              X ~ @ Z S 1 a $ % X 5 8 4 5 m o o o u..           ",
"                X %.. ) . . R .  .@ 8 4 8 X X F /               ",
"                . . X A X @.@.X K  . .@ { O.I { X               ",
"                . Z J L H #.{ X H o.] @ ] O.T .. .              ",
"                . Z K P P } @ M V o.[ @ [ o.P X.} @             ",
"                ~ Y H X.' B L S  .@.S ^ @.W I  .&.A             ",
"              . ` Z J L K  .@.S X X X ^ ` %.) A X               ",
"                . . . . . X X X * O O . . . . .                 ",
"                                                                ",
"                                                                ",
"                                                                "
};
