/* XPM */
static char *star_wars_2_2_39_32_removebg_pre_1_1744717091[] = {
/* columns rows colors chars-per-pixel */
"64 64 227 2 ",
"   c #030302",
".  c #0A0606",
"X  c #040C04",
"o  c #03020B",
"O  c #0A0808",
"+  c #0C0A09",
"@  c #120D0C",
"#  c #051208",
"$  c #071409",
"%  c #091D0D",
"&  c #16100E",
"*  c #050515",
"=  c #04021D",
"-  c #08081A",
";  c #0D1118",
":  c #1B1413",
">  c #181415",
",  c #211816",
"<  c #251C19",
"1  c #2A1E1B",
"2  c #0A270F",
"3  c #0D240E",
"4  c #0C2311",
"5  c #0A2912",
"6  c #112D12",
"7  c #162917",
"8  c #0A3215",
"9  c #0D3B17",
"0  c #0E3B19",
"q  c #133313",
"w  c #143A18",
"e  c #272019",
"r  c #2C211D",
"t  c #2D2918",
"y  c #30221E",
"u  c #030223",
"i  c #0B0A24",
"p  c #04042B",
"a  c #05092D",
"s  c #0B082A",
"d  c #100E2C",
"f  c #171928",
"g  c #050335",
"h  c #090635",
"j  c #070A33",
"k  c #06043C",
"l  c #09063D",
"z  c #04093C",
"x  c #08093C",
"c  c #150733",
"v  c #130C34",
"b  c #180E3D",
"n  c #261533",
"m  c #112C26",
"M  c #252622",
"N  c #2D2321",
"B  c #322522",
"V  c #352A26",
"C  c #392C28",
"Z  c #3B3327",
"A  c #363133",
"S  c #422C27",
"D  c #422D29",
"F  c #44322C",
"G  c #4A332C",
"H  c #473E2C",
"J  c #433531",
"K  c #4D3932",
"L  c #4C3B37",
"P  c #543B34",
"I  c #573E37",
"U  c #164719",
"Y  c #13431C",
"T  c #1A4B19",
"R  c #1C521C",
"E  c #1D5B1E",
"W  c #215A1E",
"Q  c #1E601F",
"!  c #144F25",
"~  c #135524",
"^  c #1A5D25",
"/  c #285924",
"(  c #35512D",
")  c #1E6523",
"_  c #1D6B24",
"`  c #18662B",
"'  c #1E7027",
"]  c #1D752A",
"[  c #1C792B",
"{  c #1A6A33",
"}  c #1A7633",
"|  c #1A7933",
" . c #306E2F",
".. c #48532F",
"X. c #5B4037",
"o. c #54423D",
"O. c #5B433C",
"+. c #65473D",
"@. c #68473E",
"#. c #67483E",
"$. c #69493F",
"%. c #655B34",
"&. c #4B6733",
"*. c #496A34",
"=. c #4D6935",
"-. c #070540",
";. c #090544",
":. c #040B44",
">. c #0A0A45",
",. c #0C054B",
"<. c #040D4A",
"1. c #0C0A4C",
"2. c #110A4D",
"3. c #18084B",
"4. c #081347",
"5. c #04104E",
"6. c #181242",
"7. c #0E0652",
"8. c #0D0C52",
"9. c #0B0E57",
"0. c #110655",
"q. c #130B53",
"w. c #1A0856",
"e. c #14075B",
"r. c #14095B",
"t. c #1B0C5C",
"y. c #041253",
"u. c #0B1A54",
"i. c #06155B",
"p. c #2D0B4F",
"a. c #22095C",
"s. c #280858",
"d. c #093A50",
"f. c #1A0863",
"g. c #1A0C62",
"h. c #0C1666",
"j. c #191167",
"k. c #0C1170",
"l. c #0B167C",
"z. c #0A187E",
"x. c #260B68",
"c. c #250B6A",
"v. c #340A6C",
"b. c #2C0970",
"n. c #390974",
"m. c #0C2B6E",
"M. c #112775",
"N. c #112875",
"B. c #470B66",
"V. c #470979",
"C. c #590E77",
"Z. c #540C79",
"A. c #5A0E78",
"S. c #064776",
"D. c #474747",
"F. c #594640",
"G. c #5D4B43",
"H. c #5D5C5C",
"J. c #624D45",
"K. c #6B4C43",
"L. c #644F49",
"P. c #645047",
"I. c #6D5046",
"U. c #665149",
"Y. c #6B554C",
"T. c #705147",
"R. c #72544A",
"E. c #74594F",
"W. c #745B52",
"Q. c #7A5D53",
"!. c #6F7447",
"~. c #7C6156",
"^. c #7E6359",
"/. c #626262",
"(. c #887B4B",
"). c #82655B",
"_. c #86695F",
"`. c #886A5F",
"'. c #837E51",
"]. c #876A60",
"[. c #896B61",
"{. c #1E812F",
"}. c #1E8435",
"|. c #1D8539",
" X c #1D8B3A",
".X c #1F933E",
"XX c #208936",
"oX c #239238",
"OX c #20933B",
"+X c #219B3C",
"@X c #20A23F",
"#X c #1F9D41",
"$X c #229B41",
"%X c #1FA142",
"&X c #21A444",
"*X c #22AC45",
"=X c #23AE49",
"-X c #22B247",
";X c #23B54A",
":X c #22BD4C",
">X c #23C14E",
",X c #25C350",
"<X c #908359",
"1X c #A18E5E",
"2X c #AA8B66",
"3X c #B7906E",
"4X c #CE9A7A",
"5X c #E6CF75",
"6X c #E8D277",
"7X c #0A1A80",
"8X c #550880",
"9X c #075789",
"0X c #05629D",
"qX c #0564A0",
"wX c #7D8A80",
"eX c gray56",
"rX c #A8A8A8",
"tX c #B1B0B1",
"yX c #DE9E81",
"uX c #DBA080",
"iX c #E5A285",
"pX c #EBA388",
"aX c #F2A68B",
"sX c #F7A88E",
"dX c #D2D2D2",
"fX c #ECECEC",
"gX c #F9F9F9",
/* pixels */
"g g g g g g g g g g g g g g g g g g g g g g g g g g g g g g g g g g g g g g g g g g g g g g g g g g g g g g g g g g g g g g g g ",
"g g g g g g g g g g g g g g g g g g k g g g g g g g g g g g g g g g g g g g g g g g g k g g g g g g g k g g g g g g g g g g g g ",
"k g k k g k k k g k k k g k k k g k k k k k k k k k k g k g k k k k k g k k l k g k k k k k g k k k k g k k k k k k g k k g g k ",
"k k k k k k k k k k k k k k k k k k k k k k k k k k k k k k k k k k k k k k k k k k k k k k k k k k k k k k k k k k k k k k k k ",
"k -.k -.-.-.-.-.-.-.-.-.-.k k -.k -.-.-.;.k ;.k -.;.k k ;.k k ;.;.k k ;.l l ;.k -.-.-.-.-.-.k -.k -.-.-.-.-.-.k -.k k -.k -.k -.",
";.-.-.-.-.;.;.;.;.;.;.;.;.;.;.;.;.;.;.;.;.k ;.;.;.;.;.;.;.;.;.;.;.;.;.;.;.;.;.;.;.;.;.;.-.;.;.-.;.-.-.-.;.-.;.;.-.;.;.,.-.;.-.-.",
";.,.;.,.;.;.,.;.;.,.;.,.;.;.;.;.;.,.;.;.;.;.,.,.;.,.;.,.;.,.;.,.;.;.;.,.,.,.,.;.;.,.;.,.,.;.,.;.;.,.;.,.,.,.,.,.;.;.;.;.,.;.;.;.",
",.,.,.,.,.,.,.,.,.;.,.,.,.7.,.,.,.,.7.,.,.7.,.,.;.,.,.,.,.;.;.;.,.;.;.3.;.;.;.;.;.;.,.,.,.,.;.:.-.-.,.,.;.,.,.;.,.7.,.,.,.,.,.,.",
"1.,.,.,.w.w.,.,.7.7.7.7.,.7.7.,.7.7.,.7.,.7.,.,.,.7.h o o o o o o o o o X o o o o * ;.,.,.:.k k k -.,.7.7.,.7.7.7.7.7.,.,.7.,.,.",
"0.7.0.,.3.0.7.0.7.7.7.7.7.7.7.7.7.7.7.7.0.7.0.>.h h f 3 3 0 ~ ~ ~ ~ ~ ~ ~ ~ ~ ~ 0 4 v s p k k k z k -.7.7.7.7.7.7.7.7.7.7.7.7.,.",
"0.7.7.7.;.0.0.0.7.7.7.7.e.7.7.0.0.0.0.0.0.0.q.d X   q ) ) XX>X>X>X>X:X>X>X:X>X>XOX^ % X X j :.<.<.k -.7.7.7.7.7.7.7.7.7.7.7.7.7.",
"r.r.0.0.>.e.0.e.e.e.e.e.e.e.e.e.e.e.e.e.e.q.= 7 T T [ -X-X-X>X:X:X>X:X:X>X:X:X>X;X-X&X| U ; u :.<.k -.7.e.e.e.e.e.7.e.e.9.7.e.e.",
"e.r.7.:.z s.e.e.0.e.e.e.e.e.e.f.e.e.e.e.3.v 3 w ) [ XX} } } } } |.>X:X:X:X:X:X:XOX| | ^ q X * k k k k 0.e.e.e.e.e.e.e.e.e.e.e.e.",
"e.7.z z x l 0.e.f.f.t.w.e.e.e.e.t.t.f.e.s X W E _ -X` . . X X   0 :X:X>X:X:X>X>X`   X       * k k k k r.e.w.t.e.t.e.e.f.f.e.e.e.",
"f.7.z -.z z s = = = = = = = = = = = c f.s X R XX*X:X*XOXOX X.X.X%X:X:X:X>X:X:X:X&XOXOXOX|.%   = g g * * = = = = = = u t.f.e.f.f.",
"f.8.i.<.:.g m 9 9 9 w 9 9 0 9 w 0 9 m 3.f 6 ] +X:X:X&X|.|.|.|.|.#X:X:X:X>X>X:X:X&X|.|.|.XX! 4   = i 0 9 0 w 9 9 w 0 0 3.,.f.f.f.",
"f.0.<.i     { >X:X;X:X;X;X>X:X:X;X>XoXO w ' ;X>X>X,X`       . X Y :X:X:X>X>X:X:X)   o X - $X| o   0 ;X:X;X:X:X:X:X:X=X3 = t.c.f.",
"c.3.u ` |.|.*X-X{.] [ [ ] [ [ [ [ *X-XXXOX&X:X>X%X! 4     D.rXrXwXY .X:X>X>X%XY % $ eXrXrX( ~ XX|.}.[ } ] ' ] } ] ] ] T 7 i a.c.",
"c.3.- { $XOX%X+X=.&.&.&.&.&.&.&.&.$X=X*X;X>X>X:X%X#       /.gXgXtXo |.:X>X:X&XX   - dXgXfXA 0 :X&X}.W ( &.&.&.&.&.( E T 7 * a.b.",
"b.0.z ; X X 9 *.4XiXiXiXiXiXiXpXiX=.W ) +X>X>X>X%X#       /.gXgXtXX }.>X>X>X@X#   : dXfXfXA 0 :X0 3 W 2XpXpXiXiXpX'.R $ * k w.b.",
"b.w.l a p p ; q !.2XaXaXpXaXpXaXpX3X<XW ' XX:X>X&X#       M H.H.D.X |.%X}.@X@XX   + D./.H.@ 9 ;X8 r 1X4XaXaXaXiX!...4 i g z 3.b.",
"n.w.:.<.<.l - X R !.aXaXaXaXaXaXaXaX4X=./ ' ;X>X*X8 #             X  X-X_ OX@X2           X Y :X8 S aXaXaXaXyX3X( 5 * l :.x 3.n.",
"n.w.z >.l l - O T <XsXaXaXaXaXaXaXaXpX4X!._ :X>X:X;X~           $ R @X:X;X:X-XE 3         w ] :X8 S pXaXsXsX'./ $ i <.-.l k 3.n.",
"n.a.:.>.z :.j i 6 ..'.(.2XaXpXaXaXaXaXaX!._ ;X:X>X>XOX` q 2 6 6 U  X-X>X>X>X-XOX^ 6 q 2 q [ $X:X8 S pX2X'.'.( 7 v j :.l -.k 3.V.",
"V.w.<.<.:.:.l x * 7 T T !.4XpXaXaXaXpX4X!._ -X:X>X>X>X>X] ) ) ) [ *X:X:X,X>X:X%X|._ ) ) _ %X:X&X8 D uX=.T R > i 3.>.:.-.l x w.V.",
"V.c.l <.<.:.l >.s.p.X X 7 *.4XsXsXsX4X*./ W ) OX>X>X>X>X;X-X:X-X X% OX,X:X>X%X5 ` ;X-X-X:X,X X% w /  .6 X X p.V.a.l 1.l -.l 3.V.",
"Z.c.<.>.<.>.l :.v.v.b d f q !.<X<X<X!.Q w 6 6 ` oXoXOXoX:X:X>X>X+X~ ` ` ` ` { ~ |.>X>X:X:X| Y   3 q 6 ; - - p.8Xa.l >.-.>.k s.V.",
"n.a.:.:.>.z >.>.v.V.x.j.6.@ w R W R R W 7 X X q R R R E *X;X;X:X>X>XY X # # 5 ;X>X:X;X-X*X5 O O     o a :.j s.8Xa.:.>.<.;.l 3.a.",
",.>.<.;.>.:.>.:.v.v.j.g.t.t.; # X X X X o.Y.~.V X X X # ^ _ _ *X>X>X*X&X%X%X%X>X>X;X0 % 2 G.W.Y., * :.5.:.z s.8Xt.,.1.<.;.>.>.7.",
"1.1.<.,.<.;.>.1.v.v.g.t.t.t.b f - . + B U.[.[.F.V t M V q w 9 ` | } } } | | | | } } V V V ~.[._.< - 5.:.:.j s.Z.r.1.<.8.;.>.>.8.",
"1.1.<.<.1.<.,.8.v.n.2.:.x q.x.q.>.- < )._._._.^.^.[.[.^.,   . . .     o X . o X X + W.].^.]._._.e - x :.:.z s.V.f.2.1.9.2.;.1.8.",
"q.>.>.<.<.>.;.8.v.v.2.z x 4.x.3.>.>.v < : : > e V ^._.].E.U.U.U.O.K G.L.L.P.L.L.P.Y.^._.].]._._.Y.o.- z :.x 3.x.j.2.1.1.1.>.1.8.",
"q.1.<.<.8.>.1.8.9.c.8.<.z >.x.w.>.>.v : : : : . + o.U.G.G.W.[.).Q.R.^._.]._._.[._._.[._._._.].].[.L.  a :.x 2.x.g.q.1.2.,.>.,.2.",
"2.7.9.y.i.>.2.8.g.x.1.4.<.z g.q.q.- : +.+.+.+.r       .   C [.I.I._._.].]._._._._._._._._._.^.].].J.. j <.z >.t.t.q.1.q.2.,.>.z ",
"q.8.1.1.,.1.2.q.g.x.2.:.:.z 9.6.- C G @.$.I < F O.F.O.o.+ @ B I R._.J N r r N r r N r o.^.J N N N C o.M u z >.q.8.1.8.8.q.1.:.z ",
":.:.-.1.1.9.q.9.j.x.1.:.<.<.q.x   P T.K.+.G > o.[.].~.Y.m 4 4 Z X.Y.Z t t t t r t t t K U.7 4 4 X < `.A > j <.8.8.1.7.8.q.1.:.y.",
"l z z 1.q.q.q.t.t.j.4.:.4.<.r.4.  J._.].V > ~._.[.[.L @ +X-X=X6 . @ <X6X6X6X5X6X5X5X6X(.O $X;X-X5 < ].^.U.O v 9.q.1.1.q.q.1.<.5.",
"<.:.:.1.q.q.q.t.t.t.1.:.:.>.v n o.W.].[.N > ^.~.I.Z ( | -X:X:X|.~ . ..%.%.%.%.%.%.%.%.Z   _ +X:X$X^ Z Y.U.O v r.<.:.:.2.r.q.:.<.",
"4.:.:.q.t.9.t.t.r.r.<.>.y.:.* r [.]._.W.C < ^.K.L O ` >X>X:X*X*X}     . .   X     . .     w _ *X;XXX  F.Y.X c t.>.:.:.<.r.q.<.4.",
"<.:.:.1.q.q.t.1.<.:.<.4.4.<.- r ].[.L.@ o.Q.K.B $ U |.>X>X+XE 3 X   r D S S D S S S S <     3 ) &X Xo F.Y.O g 1.:.y.:.<.<.:.:.<.",
"<.:.:.:.<.8.g.<.:.:.<.<.:.<.* r ].].L.  K E.$.r X T ] OX;X*X XY %   y G G G G G G G G <   % U  X-X|.X o.Y.  a :.4.y.<.:.:.:.<.<.",
"5.<.<.:.<.q.x.<.<.<.:.4.:.<.* N ].].U.  S $.$.r X R E E OX-X*X_ q   y G G G G D G G G 1   U ] =X-X|.@ G.Y.X a <.:.:.<.:.4.<.<.<.",
"y.<.<.<.4.q.q.5.<.<.5.<.4.4.* N ].[.P.  D K.$.r X R E / 2 % % X     B G G G G G G G G 1     # # $ M ~.).Y.. a <.5.<.5.<.4.<.<.y.",
"y.<.y.y.y.5.5.5.y.<.y.<.y.5.j f L ~.W.A C G R.G < q q q 1 :   : y C y y G G G G G D y @   , 1 < B o.`.U.A i 4.5.y.y.y.<.y.5.5.y.",
"y.y.y.y.y.y.y.y.y.y.y.y.y.y.y.:.o G.).[.C : ~.E.I @ .   P C . P R.`.r @ D D D D S S @   + K +.+.~.^.^.M = y.y.y.y.y.y.y.y.y.y.y.",
"i.i.i.i.i.i.i.i.i.i.i.i.i.i.i.i.u.f V [.~.G.: o.).I 1   . y I +.T._.Q.o.@ + . . . @ G P K , @ @ & & > b y.i.i.i.i.i.i.i.i.i.i.i.",
"i.i.i.i.i.i.i.i.i.i.i.i.i.i.i.u.4.f r o.F.L < F F.G C N y V G I K.Q.).W.V 1 :   & C K.K.+.C y r + o i 4.i.i.i.i.i.i.i.i.h.i.i.h.",
"7.1.1.8.<.8.1.1.>.>.1.8.1.1.8.x . G K . . & +.r     J [.[.I   P $.K.)._.`.R.I . G [.`.Q.@.)._._.r ; 4.5.8.1.8.,.8.8.:.,.1.<.8.<.",
"z.7Xl.l.7Xl.7Xk.9.l.l.l.7X7X7Xh.  G +.G G P +.I K J.E._.[.o.  K #.$.~._.[.R.P   F `._.Q.@.)._._.Y.L a h.7XM.7Xl.7X7Xk.k.z.z.z.z.",
"0X0X0X0X0XqX0X9Xm.0XqXqX0X0X0XS.O G K.+.+.K.+.K.R.`._._.U.J , P #.$.Q._.[.R.P . J `.).Q.@.E.).`.[.J.  d.S.0XqX0X0XqX9Xm.0X0X0X0X",
"M.M.M.M.M.M.N.u.u.N.N.N.M.m.N.u.X G $.$.K.+.@.Q.[.[._.^.: 1 #.$.#.$.Q.].[.R.I   J [.`.Q.@.@.R._.`.J.  . i N.N.M.N.N.M.2.N.N.N.N.",
"C.C.C.Z.A.A.A.B.p.A.A.A.C.C.p.B F.+.#.#.+.K.Q.)._.[.Q.K.G P #.+.K.Q.)._.[.R.I . F _.R.$.+.+.T._._.E.F & - Z.A.A.A.A.B.p.C.C.C.C.",
"c c c c c c c c c c c v c c O r _.I.#.$.$.$.`.`._._.R.$.$.$.@.+.T._._._.).K.G : o._.I.#.+.+.T._._.~.K., o c v c c c c s c c c c ",
"p p p p p s u u u u u u u u o N _.I.#.#.$.I._.`.].[.E.+.$.@.$.#.R._.[.~.K.r & W._._._.E.@.@.R.`.`.~.K., o u u p u u p p s p p s ",
"h x h h l x p p g p a a p j o N _.I.$.$.$.$.R.R.E.).).Q.Q.R.#.V 1 V V V 1 + @ ^._._._.).Q.K.K.R.H B < + o p p a g p z x j h h x ",
"p p g p p x g p u p u p u u * N E.+.P X.P X.I P O.E.W.W.W.K.P @             @ U.E.W.W.W.E.O.I P > o o   * i p u u j h p g g p p ",
"p p g p p h g u a p p g p u a i X . . . . . . . . + + + + . .                 . O O + + X . . . a a u u p p p p u g p p g g p p ",
"p p p p p p p u p p p u p u p u = = * - * * - * * = * * * * * = = * * * = * * * * * * - = - - - u p u p p p u p u p s u p p p u ",
"p u u p u p p u p p u p u u p u p p u u p p u u p u u p p u p u u p u u p u p p u u u p u u p p u p p p u p u p p p p p p p u u ",
"u u u p u p u u u u u u u u u u u u u u u u u u p s p u p u u u u u u p u u p p u u u u u u u u p u u u u u u u u u u u u u u u ",
"u u u u u u u u u u u u u = p u u = u u u u u = u p u u u u u u = u u u u u u u u u = u u = u = u u = u u u u u u u u u u u u u ",
"= u u u u u u = u u = u u - u = u u u u = u = = u u u u u u u u u u u u u u u u = = u u u u u u = u u = = u u u = u u u u u u = ",
"= u u u = u u = = = u = = = = = = = = u u = = = = u = u u u = u = u = u u u u u = = = u = u u = = u = = u = = u = u u = u u = = ",
"= = = = u = u = = = = u = = = = u = = = u = = = u u = = = = u = = = u = = = = = = = u = = = = = = = = = = u = = = u = = = = = = "
};
