/* XPM */
static char *wall1744712804_1_1744713754[] = {
/* columns rows colors chars-per-pixel */
"64 64 78 1 ",
"  c #0C131E",
". c #0F1621",
"X c #0E1924",
"o c #0D1D2A",
"O c #111723",
"+ c #131A26",
"@ c #181B27",
"# c #151D2A",
"$ c #191E2C",
"% c #171E30",
"& c #16212D",
"* c #19222E",
"= c #162331",
"- c #1B2533",
"; c #172832",
": c #1E2935",
"> c #1C2739",
", c #1E2A3A",
"< c #22232D",
"1 c #28272F",
"2 c #24292F",
"3 c #2A292F",
"4 c #222632",
"5 c #212935",
"6 c #2A2A33",
"7 c #212B3A",
"8 c #282C38",
"9 c #25323E",
"0 c #29333F",
"q c #253442",
"w c #2A3642",
"e c #273945",
"r c #2B3945",
"t c #2C3C49",
"y c #303D4A",
"u c #2E414C",
"i c #32424E",
"p c #2F4451",
"a c #344552",
"s c #394653",
"d c #364954",
"f c #394A56",
"g c #374A58",
"h c #3B4D5A",
"j c #3E505C",
"k c #3F5461",
"l c #424F5A",
"z c #42535F",
"x c #435562",
"c c #455965",
"v c #495965",
"b c #475D68",
"n c #4B5D6A",
"m c #515E6B",
"M c #4D616D",
"N c #51636E",
"B c #4F6370",
"V c #4E6972",
"C c #536572",
"Z c #596774",
"A c #546A75",
"S c #586B76",
"D c #576D79",
"F c #5B6E7A",
"G c #56727A",
"H c #5D727D",
"J c #61727E",
"K c #627681",
"L c #657A85",
"P c #687C86",
"I c #677E88",
"U c #6B7D89",
"Y c #6D828D",
"T c #70838E",
"R c #6F8691",
"E c #6E8992",
"W c #728691",
"Q c #728994",
/* pixels */
"******22&*-77777:*:455;,7,7775:::,87777>755--$&*-5-595:5:5595:**",
"#***@*;*&&-:7:7>****-:->:,:7:::-::7777--7---*$$&-54-55:::::55:**",
"@**<***& +&*----&@#***====---*-*;=;--=---=**&#++*==**=****::5-&o",
"@**:*&&+&&&;%%--&+@#&&&==&&=&**-&=>===%==&**&@+&$$*$&**&*;**-*+O",
".&<4*+@X**-*%$=#*@@&&&&&===%=***=%-%-%%===******--**&*&&*-&%:-#+",
".@**&+X+-5:*&===*&&&*=>>>====*-*==--%--=---****457--::--,,--:5$o",
".+@&  &@-55-&&==##**--;,>>--==--=>->>---:-::**:5wrq7iyqwutrrrq>+",
"O+@@  +&-5:*&=>=@##*-::,:;;-4-4-:;577-7---:4;*58shiixzaazzgssy7=",
"..++  X+**&+**2;++&*:::,:,77775577,7774>7---**:0zNzMGGkMAHNbCxq&",
". ++X ++&#X+&*2*+#&--5,:,,777597,79777747>--;*:0MSNAYYGVIYHAHnq&",
".+##+X++OX.X****++$*-::-:::79575,7,777777---**4wmSAHWWGGQQLHICqo",
"++@*#+++@O+&@*&+++$=-->==->,55:-:-;->------$***wvZCHWEGGYEKHYV,o",
"+@;*@+&@++++&&+ ++#&&==&&&=>-=-*===-=%%--%*$&&*0zNnFQQGVLUJKIZq&",
"+@#2++#&@++@+@++X++$&=&&===&==*$====$--%-=&#&**0szzAQQVMnSFKTZe#",
"X+;*@++@+..++++@++@$*=>-==---=%>>-=------%=$*;*9eiaMYYcpdcZKUCr#",
"XX22+++*+.  .++*X+$$=-;:;->>>>>>:>;---7-5--$*::9wddnIYkpgkmFJmt%",
"+&::*&++++.  .+@++&;2:9;,,q,,>,,,,,,,,,,77---=*ehbcmCCccCFnbnl7-",
"X#:2*+&++.   ..@+++2;;;9,,,,,,,,q,,,,,,575--&==wbCcccvxBLKnhhs7-",
"+&;:*++&++    @@++2;,,9,,,,,,,,,>7,9:759864-&&;tBDxgghxCUKcuur::",
"X@*2*+*@@+   +@@+++;,,9,,,,,,,q,q75::55586<*@**yBFvxkxvARPMhja:*",
".+--**@@@.   X@&++$-:777,,,>,,>q7>74::2666<$#$-tMKBnKZBCYYHAGv9+",
"X&-:*@**&.    X&++@-,7q,,,,q,7>,7q74:22261<<+$-tbKBKUUKFYEYLUN9X",
"@&;2*###+.   .O++X#%>77>,,,,,,,q>q74:21111@<#==enKBZUUKFLYJHPAw&",
"X&;22**@&X   Xo+++#%77q>,,,,,>,7>,>>:<2111<$===exBcnKKBBASNMZz9&",
"@&*5-$$#+++o++#$+++-77,,>,,7,,7,>,,,,,,;4<<$-==qagaszzdaffpasu4*",
".&44=&$$+++$#$$$++#=57,7,,,,,,>,>>,,,;::444*--=qpaetiprepuuri0:&",
"+@::=$&$##%=--%$++#*:77,,,,,,,>>>,,,5:::444---=,tperiirrppuwi0:*",
"X&*4=#$##&*-555-++@--755-,,,,--7>,,,9::;7-4--==qgjfszcfhzchhzs5*",
"+#4-*$$$#&=-777-#+@*::5:-,:;>=-%,,,7;,;97---=%%wvnbnJJZNSGAASv0&",
"+&--*$&$$=%-577-++@&*:-:>::>-----,7,9::;>7>%%%-wMKZKWQJSYYJJUZw+",
"#&-5*$=$$==-577-@++*::*:-;,>=-%--4:,,,;,,>>%%$%rcKKDYTHGYYLHYNw&",
"$*5-$$$&#=--777-@@@&*4:*&=-=$$%=*-5:;;;,>>4==+%wbKBBHJVGEEHVGM9o",
"+&:2;@##++-:,,,>@+&<**&#++X&@&&*-4,5--**44<<*$:rMJnzhkcDYYNzzs0;",
"+*::@##+o&-::,,>++&***&+X+X+++&+=-,-5**<444*$#*tmSzhhhkCYPnlli:&",
"+%59;+++&&-:::>=+++***@X++ ++X@@-777:242464*@@*tNSnzbnnDYPNzzh9&",
"+$2;2@&@&&-:;,,=+X@*&&#++++&+@#$%-755:4-641$$#*9xNvNFKBAJFNmZz9&",
"o%-7*&&&@&*;;7,>*+&&&#&#&&&@#$&*%-7755:5644*&&*9sxxBUUBkbNNZJN0+",
"O%-4*&+@&&::,7,>*++++###&&@&$**=77-7:555854$*-*9ygkCUUbghcNHYZr&",
"+#-4&++&&&*:-,7>&+@&+&&++&&@#$&*%4:;:2::64*&**-9yghBUUBgjcAJPA9o",
"%%5-&X&&+**;>,7>++++&+@&+@@&##&*>%-***-**<*@&*;ejkknQQBkcMHJUCe;",
"+%5:&+&&#&---77-&+&+&&##&*##+&&&%%%%&&&&&@@+@+*tbCbCQQGVHYLLYN0o",
"@=,5*&&-**---77>+&+&-*-*-**$&&**%%%=&***&&@+*&=rBFVGQQHAYYJJJNe;",
"+$-5*&*-*-->--74&&+*---5552:::5555:-::5::**&**;rMFASEEGVLYGSJM0;",
"o$-:***-4%--%--%++&-555554::5:::5557,::55-:---:9zbcMSAMjMVMzzh9;",
"+$--*&*-----%%%%++$*44-4:5::4::;---5:-,::*4-$*=9ryuipiueuii0i0:&",
"O#*-##$*%@$@@#%%++#*=*&**;::::;*$-=---;=-*-%**&;-::-92;;;52-22@@",
"++*=$+##%O%O%O#o++#--&$#&++&&&&o$$@$&&&o-===%=*-*****;&&;;*&*@@@",
"$$--$#$*@%+%O%%###**=&&#&&&&&&+&$$$=&====#==&=*&-*#&**&**2****@@",
"==>;,->>==>>=>>-&&*;2;::::;:;*-;=;>>,,>,>>>;>>>=--->->>>5----**&",
"==-,,;-==>-;>::-***-::*;:55:4:::>:,,::,:>;=;===>7557>-5>4-5-5**#",
"+#=--==$*&&***-*********&**;*---=---=-**-***&&=&$-$%=*$*$=****@+",
"X+###$+@+@@++@&&@@$$*@+&&@&&&&*-+&&&&&&&&+@+&@@+####$+++@@$$*@OO",
"OOO$@++@++@O+@*@OO+@@+OO++++++###@@&@+&+@+O@@+O+@+O+O+OOOO@@@+ O",
".++$@@+++@@@&**&+++@&@&&+++@o###&&@&#@+&&@@#@$@+##%%#@@+&@&*&@++",
"O+$$$$$@+&******@@**--*::--*-=--*:::4---****$$@@->>4-4-4*::--**&",
"+#*4--*$#&-**<**$@*-442::44:--444:::::5-64--4-%%>447575525575:--",
"o$-77-=##&%===%$++&******-*:*:-;;:>;>>=---==%@O%>,,7,,,,;,:,;-&#",
"+#-77>=##+$=%=$$+O+&&&&&****-*::>->>-=>=-=%$%#o#>,,,,,,,,,,,,>=&",
"O%--7-=$oo%$=*%#++@$*&&&&&*:*;::-;>;>>>=->%-=$+o>>,,,q,,,,,7,>==",
"X#----*#+$&===&=&@&***&&***-;:;:=>,>;;>>,--%-%#%=>,>>>7,,,,,,==&",
"Oo=-4-*&#&*----*$$$*-=-=;::*>=----->>>---5==-%#%----::7--::2:-*&",
"O%$=-**##$*=****$$$$$$$$**-*%$**%-%%%$%=-*$$%$@#$==%*********&++",
"OO+$@++O+#@@@#@@@+$@$@%+@$$#%++%+@##@@$@$++O#@+@+@@@+&@@@@@&&+O ",
"OOO++++O+O++OO++@@O@+O+OO+O+OO.OO++++O++++OO$+O++++++@+OOO++X@  "
};
