/* XPM */
static char *wall1[] = {
/* columns rows colors chars-per-pixel */
"32 32 104 2 ",
"   c #0A0F15",
".  c #0E141C",
"X  c #10161E",
"o  c #3F261B",
"O  c #101721",
"+  c #131A25",
"@  c #161E2A",
"#  c #181F2A",
"$  c #17202C",
"%  c #18222E",
"&  c #1B2533",
"*  c #1D2837",
"=  c #1F2A38",
"-  c #20252E",
";  c #342825",
":  c #322A28",
">  c #202733",
",  c #222A36",
"<  c #202C3B",
"1  c #322C30",
"2  c #25313E",
"3  c #323034",
"4  c #273340",
"5  c #283644",
"6  c #2A3846",
"7  c #2E3C4A",
"8  c #32414E",
"9  c #354451",
"0  c #374854",
"q  c #3A4956",
"w  c #3D4D5A",
"e  c #3F505C",
"r  c #41525F",
"t  c #445661",
"y  c #465864",
"u  c #495B67",
"i  c #4B5D69",
"p  c #4C606B",
"a  c #4D616C",
"s  c #4F606C",
"d  c #4F626D",
"f  c #4E626E",
"g  c #50636F",
"h  c #50646F",
"j  c #51646F",
"k  c #516570",
"l  c #526570",
"z  c #516670",
"x  c #536772",
"c  c #516873",
"v  c #536872",
"b  c #536973",
"n  c #546873",
"m  c #556974",
"M  c #566A74",
"N  c #5A6D78",
"B  c #596E79",
"V  c #5A6F79",
"C  c #5B6F79",
"Z  c #5A6F7A",
"A  c #59707A",
"S  c #5A707A",
"D  c #5A717B",
"F  c #5C717B",
"G  c #5B717D",
"H  c #5D737D",
"J  c #5E727C",
"K  c #5E727D",
"L  c #5E737D",
"P  c #5F737D",
"I  c #5F737E",
"U  c #5E747E",
"Y  c #5F747E",
"T  c #5E747F",
"R  c #60747E",
"E  c #60747F",
"W  c #617882",
"Q  c #637A84",
"!  c #637B85",
"~  c #657D88",
"^  c #657E88",
"/  c #667E88",
"(  c #667F88",
")  c #667F89",
"_  c #677F8A",
"`  c #6A838D",
"'  c #6C858F",
"]  c #6D8891",
"[  c #718B94",
"{  c #718B95",
"}  c #718C95",
"|  c #728C95",
" . c #728C96",
".. c #738D96",
"X. c #738E97",
"o. c #748E97",
"O. c #758F99",
"+. c #76929B",
"@. c #77929C",
"#. c #78939C",
"$. c #78949D",
"%. c #7A969E",
"&. c #7B97A0",
"*. c #7B98A1",
/* pixels */
"@ & % & $ = < < % & = = = < = = < < = = * * & @ * = = = = < < % ",
"@ * % @ + % % & $ @ @ $ % % @ $ % % $ % % @ @ + $ $ % $ % % & + ",
"+ & $ + % & @ $ @ @ % & & % % % % & & % & & % $ & % $ % & & & + ",
"+ $ . + < * @ * + & & & * & & * * * * & * & & = 8 5 0 5 0 6 7 & ",
". +   + % + % * + @ = < < < < < < < < < < & $ & N i ..p ' n G @ ",
"+ & + @ + + % % + $ & & = < < = = = = * * & $ & G k +.n ..G / @ ",
"+ * + @ + + @ + + $ % $ $ % % $ $ % $ % % @ $ * p u #.p / G / $ ",
"+ * + @ + + + @ + @ % & & & & & & & & & & % % = 5 q &.8 7 G / % ",
"+ < @ @ + . . + + $ < < < < < < < < < < < & @ * n t p t / r t % ",
"+ = @ @ + . . @ + % < = = = = = = = * , 3 % $ * E w 8 u O.8 0 % ",
"+ * @ $ + . . @ + $ < = = < < < < = * , : @ % * G p ] k ..G ! @ ",
"+ < $ % + . . @ + @ = = = = = < < = = - ; % $ * G h ..k ' N ! $ ",
"+ = $ $ @ + + @ + % = < = = < = & = < & > & % * 8 5 0 5 8 6 7 % ",
"+ < @ @ + & * & + % < < * = = * = = = * = & $ * q 7 w 6 0 7 0 % ",
"+ < @ $ $ & = < + @ * * & & & & * = = = = & $ & G h +.k ] G ! $ ",
"@ < @ % @ & = = + @ & & * & & $ & = * & = & @ & G h ..n ..G / % ",
"+ < @ @ + * < * + % & + + + + $ & = * & & & % * E w 8 u ..w w % ",
"+ < @ @ @ * = * + @ & + + + + @ & = = % o % @ & G y n p ..t i % ",
"+ < @ @ @ & = = + @ % @ @ @ $ $ & = < > 1 & @ = q e *.w w N / $ ",
"+ < @ $ @ = * = + $ + @ @ @ @ % & & & & & % % = 0 w #.w t N / % ",
"@ * @ % @ & = = + $ + @ @ @ @ @ @ + @ @ @ + @ * G h #.n ..G / % ",
"@ < @ & * $ & = + @ < < < < < < < < < < < * @ * N i ' i / n G $ ",
"O & + % * % + & + % & & & & & & & & & & & % $ & 4 < 5 < 2 < 2 @ ",
"+ & + @ + + + + + % @ @ + @ @ @ + @ @ @ @ @ & @ @ @ @ $ $ @ @ + ",
"% < = * & * = < % & = = = = = = = = = = = * & & = * = * * * = % ",
"+ $ $ @ + @ @ % @ @ $ @ @ $ $ % % % $ $ $ @ @ @ $ $ $ @ @ $ $ + ",
". + + + @ @ @ @ + + + + + + + + + @ @ + + + + + + + + + + + + + ",
"+ & = @ @ % & & + & * = = & * = * = = * * = & + = = = * = = = $ ",
"+ * * $ + % % $ + % @ $ $ % & & & & % & & @ % + = = = = = * * $ ",
"+ & = @ @ $ @ @ + % $ @ $ & & & & & & & & @ % + * = & = = = * % ",
"+ & & @ $ & * & @ & % % & & & & & & & & & & & + & & & & & & & @ ",
"O + + + + + + + + + + + + + + O + + + + + + + + + + + + + + + . "
};
